%TF.GenerationSoftware,KiCad,Pcbnew,9.0.6*%
%TF.CreationDate,2026-08-01T11:23:17+05:30*%
%TF.ProjectId,L298N,4c323938-4e2e-46b6-9963-61645f706362,rev?*%
%TF.SameCoordinates,Original*%
%TF.FileFunction,Soldermask,Top*%
%TF.FilePolarity,Negative*%
%FSLAX46Y46*%
G04 Gerber Fmt 4.6, Leading zero omitted, Abs format (unit mm)*
G04 Created by KiCad (PCBNEW 9.0.6) date 2026-08-01 11:23:17*
%MOMM*%
%LPD*%
G01*
G04 APERTURE LIST*
G04 Aperture macros list*
%AMRoundRect*
0 Rectangle with rounded corners*
0 $1 Rounding radius*
0 $2 $3 $4 $5 $6 $7 $8 $9 X,Y pos of 4 corners*
0 Add a 4 corners polygon primitive as box body*
4,1,4,$2,$3,$4,$5,$6,$7,$8,$9,$2,$3,0*
0 Add four circle primitives for the rounded corners*
1,1,$1+$1,$2,$3*
1,1,$1+$1,$4,$5*
1,1,$1+$1,$6,$7*
1,1,$1+$1,$8,$9*
0 Add four rect primitives between the rounded corners*
20,1,$1+$1,$2,$3,$4,$5,0*
20,1,$1+$1,$4,$5,$6,$7,0*
20,1,$1+$1,$6,$7,$8,$9,0*
20,1,$1+$1,$8,$9,$2,$3,0*%
G04 Aperture macros list end*
%ADD10RoundRect,0.249999X0.850001X-0.850001X0.850001X0.850001X-0.850001X0.850001X-0.850001X-0.850001X0*%
%ADD11C,2.200000*%
%ADD12RoundRect,0.250000X1.050000X0.550000X-1.050000X0.550000X-1.050000X-0.550000X1.050000X-0.550000X0*%
%ADD13RoundRect,0.160000X-0.222500X-0.160000X0.222500X-0.160000X0.222500X0.160000X-0.222500X0.160000X0*%
%ADD14RoundRect,0.249999X-0.850001X-0.850001X0.850001X-0.850001X0.850001X0.850001X-0.850001X0.850001X0*%
%ADD15RoundRect,0.250000X1.050000X1.050000X-1.050000X1.050000X-1.050000X-1.050000X1.050000X-1.050000X0*%
%ADD16C,2.600000*%
%ADD17RoundRect,0.250000X-0.550000X1.050000X-0.550000X-1.050000X0.550000X-1.050000X0.550000X1.050000X0*%
%ADD18R,1.700000X1.700000*%
%ADD19C,1.700000*%
%ADD20RoundRect,0.249999X-0.850001X0.850001X-0.850001X-0.850001X0.850001X-0.850001X0.850001X0.850001X0*%
%ADD21RoundRect,0.250000X-0.850000X-0.350000X0.850000X-0.350000X0.850000X0.350000X-0.850000X0.350000X0*%
%ADD22RoundRect,0.249997X-2.950003X-2.650003X2.950003X-2.650003X2.950003X2.650003X-2.950003X2.650003X0*%
%ADD23C,1.400000*%
%ADD24RoundRect,0.250000X0.550000X-0.950000X0.550000X0.950000X-0.550000X0.950000X-0.550000X-0.950000X0*%
%ADD25O,1.600000X2.400000*%
%ADD26RoundRect,0.249999X0.850001X0.850001X-0.850001X0.850001X-0.850001X-0.850001X0.850001X-0.850001X0*%
G04 APERTURE END LIST*
D10*
%TO.C,D3*%
X139120000Y-65310000D03*
D11*
X139120000Y-55150000D03*
%TD*%
D12*
%TO.C,C2*%
X100680000Y-68480000D03*
X97080000Y-68480000D03*
%TD*%
D13*
%TO.C,D9*%
X165147500Y-54040000D03*
X166292500Y-54040000D03*
%TD*%
D14*
%TO.C,D7*%
X143770000Y-69720000D03*
D11*
X153930000Y-69720000D03*
%TD*%
D15*
%TO.C,J2*%
X121215000Y-58765000D03*
D16*
X116135000Y-58765000D03*
%TD*%
D17*
%TO.C,C1*%
X159600000Y-54560000D03*
X159600000Y-58160000D03*
%TD*%
D15*
%TO.C,J3*%
X109520000Y-58730000D03*
D16*
X104440000Y-58730000D03*
X99360000Y-58730000D03*
%TD*%
D10*
%TO.C,D5*%
X150510000Y-65310000D03*
D11*
X150510000Y-55150000D03*
%TD*%
D18*
%TO.C,J4*%
X164670000Y-57740000D03*
D19*
X167210000Y-57740000D03*
X169750000Y-57740000D03*
X172290000Y-57740000D03*
X174830000Y-57740000D03*
X177370000Y-57740000D03*
%TD*%
D14*
%TO.C,D6*%
X130120000Y-69800000D03*
D11*
X140280000Y-69800000D03*
%TD*%
D10*
%TO.C,D8*%
X154370000Y-65300000D03*
D11*
X154370000Y-55140000D03*
%TD*%
D20*
%TO.C,D1*%
X146580000Y-55130000D03*
D11*
X146580000Y-65290000D03*
%TD*%
D21*
%TO.C,U2*%
X104355000Y-66005000D03*
D22*
X110655000Y-68285000D03*
D21*
X104355000Y-70565000D03*
%TD*%
D23*
%TO.C,R1*%
X171380000Y-54180000D03*
X176460000Y-54180000D03*
%TD*%
D24*
%TO.C,U1*%
X159950000Y-69900000D03*
D25*
X162490000Y-69900000D03*
X165030000Y-69900000D03*
X167570000Y-69900000D03*
X170110000Y-69900000D03*
X172650000Y-69900000D03*
X175190000Y-69900000D03*
X177730000Y-69900000D03*
X177730000Y-62280000D03*
X175190000Y-62280000D03*
X172650000Y-62280000D03*
X170110000Y-62280000D03*
X167570000Y-62280000D03*
X165030000Y-62280000D03*
X162490000Y-62280000D03*
X159950000Y-62280000D03*
%TD*%
D26*
%TO.C,D2*%
X126490000Y-69870000D03*
D11*
X116330000Y-69870000D03*
%TD*%
D10*
%TO.C,D4*%
X142880000Y-65290000D03*
D11*
X142880000Y-55130000D03*
%TD*%
D15*
%TO.C,J1*%
X133560000Y-58765000D03*
D16*
X128480000Y-58765000D03*
%TD*%
M02*
