%TF.GenerationSoftware,KiCad,Pcbnew,9.0.6*%
%TF.CreationDate,2026-08-01T11:23:17+05:30*%
%TF.ProjectId,L298N,4c323938-4e2e-46b6-9963-61645f706362,rev?*%
%TF.SameCoordinates,Original*%
%TF.FileFunction,Copper,L2,Bot*%
%TF.FilePolarity,Positive*%
%FSLAX46Y46*%
G04 Gerber Fmt 4.6, Leading zero omitted, Abs format (unit mm)*
G04 Created by KiCad (PCBNEW 9.0.6) date 2026-08-01 11:23:17*
%MOMM*%
%LPD*%
G01*
G04 APERTURE LIST*
G04 Aperture macros list*
%AMRoundRect*
0 Rectangle with rounded corners*
0 $1 Rounding radius*
0 $2 $3 $4 $5 $6 $7 $8 $9 X,Y pos of 4 corners*
0 Add a 4 corners polygon primitive as box body*
4,1,4,$2,$3,$4,$5,$6,$7,$8,$9,$2,$3,0*
0 Add four circle primitives for the rounded corners*
1,1,$1+$1,$2,$3*
1,1,$1+$1,$4,$5*
1,1,$1+$1,$6,$7*
1,1,$1+$1,$8,$9*
0 Add four rect primitives between the rounded corners*
20,1,$1+$1,$2,$3,$4,$5,0*
20,1,$1+$1,$4,$5,$6,$7,0*
20,1,$1+$1,$6,$7,$8,$9,0*
20,1,$1+$1,$8,$9,$2,$3,0*%
G04 Aperture macros list end*
%TA.AperFunction,ComponentPad*%
%ADD10RoundRect,0.249999X0.850001X-0.850001X0.850001X0.850001X-0.850001X0.850001X-0.850001X-0.850001X0*%
%TD*%
%TA.AperFunction,ComponentPad*%
%ADD11C,2.200000*%
%TD*%
%TA.AperFunction,ComponentPad*%
%ADD12RoundRect,0.249999X-0.850001X-0.850001X0.850001X-0.850001X0.850001X0.850001X-0.850001X0.850001X0*%
%TD*%
%TA.AperFunction,ComponentPad*%
%ADD13RoundRect,0.250000X1.050000X1.050000X-1.050000X1.050000X-1.050000X-1.050000X1.050000X-1.050000X0*%
%TD*%
%TA.AperFunction,ComponentPad*%
%ADD14C,2.600000*%
%TD*%
%TA.AperFunction,ComponentPad*%
%ADD15R,1.700000X1.700000*%
%TD*%
%TA.AperFunction,ComponentPad*%
%ADD16C,1.700000*%
%TD*%
%TA.AperFunction,ComponentPad*%
%ADD17RoundRect,0.249999X-0.850001X0.850001X-0.850001X-0.850001X0.850001X-0.850001X0.850001X0.850001X0*%
%TD*%
%TA.AperFunction,ComponentPad*%
%ADD18C,1.400000*%
%TD*%
%TA.AperFunction,ComponentPad*%
%ADD19RoundRect,0.250000X0.550000X-0.950000X0.550000X0.950000X-0.550000X0.950000X-0.550000X-0.950000X0*%
%TD*%
%TA.AperFunction,ComponentPad*%
%ADD20O,1.600000X2.400000*%
%TD*%
%TA.AperFunction,ComponentPad*%
%ADD21RoundRect,0.249999X0.850001X0.850001X-0.850001X0.850001X-0.850001X-0.850001X0.850001X-0.850001X0*%
%TD*%
%TA.AperFunction,ViaPad*%
%ADD22C,0.600000*%
%TD*%
%TA.AperFunction,Conductor*%
%ADD23C,0.500000*%
%TD*%
%TA.AperFunction,Conductor*%
%ADD24C,0.300000*%
%TD*%
G04 APERTURE END LIST*
D10*
%TO.P,D3,1,K*%
%TO.N,m1_2*%
X139120000Y-65310000D03*
D11*
%TO.P,D3,2,A*%
%TO.N,GND*%
X139120000Y-55150000D03*
%TD*%
D12*
%TO.P,D7,1,K*%
%TO.N,12V input*%
X143770000Y-69720000D03*
D11*
%TO.P,D7,2,A*%
%TO.N,m1_1*%
X153930000Y-69720000D03*
%TD*%
D13*
%TO.P,J2,1,Pin_1*%
%TO.N,m2_1*%
X121215000Y-58765000D03*
D14*
%TO.P,J2,2,Pin_2*%
%TO.N,m2_2*%
X116135000Y-58765000D03*
%TD*%
D13*
%TO.P,J3,1,Pin_1*%
%TO.N,5V Vcc*%
X109520000Y-58730000D03*
D14*
%TO.P,J3,2,Pin_2*%
%TO.N,GND*%
X104440000Y-58730000D03*
%TO.P,J3,3,Pin_3*%
%TO.N,12V input*%
X99360000Y-58730000D03*
%TD*%
D10*
%TO.P,D5,1,K*%
%TO.N,m2_1*%
X150510000Y-65310000D03*
D11*
%TO.P,D5,2,A*%
%TO.N,GND*%
X150510000Y-55150000D03*
%TD*%
D15*
%TO.P,J4,1,Pin_1*%
%TO.N,en1*%
X164670000Y-57740000D03*
D16*
%TO.P,J4,2,Pin_2*%
%TO.N,in1_1*%
X167210000Y-57740000D03*
%TO.P,J4,3,Pin_3*%
%TO.N,in1_2*%
X169750000Y-57740000D03*
%TO.P,J4,4,Pin_4*%
%TO.N,in2_1*%
X172290000Y-57740000D03*
%TO.P,J4,5,Pin_5*%
%TO.N,in2_2*%
X174830000Y-57740000D03*
%TO.P,J4,6,Pin_6*%
%TO.N,en2*%
X177370000Y-57740000D03*
%TD*%
D12*
%TO.P,D6,1,K*%
%TO.N,m1_1*%
X130120000Y-69800000D03*
D11*
%TO.P,D6,2,A*%
%TO.N,GND*%
X140280000Y-69800000D03*
%TD*%
D10*
%TO.P,D8,1,K*%
%TO.N,12V input*%
X154370000Y-65300000D03*
D11*
%TO.P,D8,2,A*%
%TO.N,m1_2*%
X154370000Y-55140000D03*
%TD*%
D17*
%TO.P,D1,1,K*%
%TO.N,12V input*%
X146580000Y-55130000D03*
D11*
%TO.P,D1,2,A*%
%TO.N,m2_1*%
X146580000Y-65290000D03*
%TD*%
D18*
%TO.P,R1,1*%
%TO.N,Net-(D9-K)*%
X171380000Y-54180000D03*
%TO.P,R1,2*%
%TO.N,GND*%
X176460000Y-54180000D03*
%TD*%
D19*
%TO.P,U1,1,SENSE_A*%
%TO.N,GND*%
X159950000Y-69900000D03*
D20*
%TO.P,U1,2,OUT1*%
%TO.N,m1_1*%
X162490000Y-69900000D03*
%TO.P,U1,3,OUT2*%
%TO.N,m1_2*%
X165030000Y-69900000D03*
%TO.P,U1,4,Vs*%
%TO.N,unconnected-(U1-Vs-Pad4)*%
X167570000Y-69900000D03*
%TO.P,U1,5,IN1*%
%TO.N,in1_1*%
X170110000Y-69900000D03*
%TO.P,U1,6,EnA*%
%TO.N,en1*%
X172650000Y-69900000D03*
%TO.P,U1,7,IN2*%
%TO.N,in1_2*%
X175190000Y-69900000D03*
%TO.P,U1,8,GND*%
%TO.N,GND*%
X177730000Y-69900000D03*
%TO.P,U1,9,Vss*%
%TO.N,5V Vcc*%
X177730000Y-62280000D03*
%TO.P,U1,10,IN3*%
%TO.N,in2_1*%
X175190000Y-62280000D03*
%TO.P,U1,11,EnB*%
%TO.N,en2*%
X172650000Y-62280000D03*
%TO.P,U1,12,IN4*%
%TO.N,in2_2*%
X170110000Y-62280000D03*
%TO.P,U1,13,OUT3*%
%TO.N,m2_1*%
X167570000Y-62280000D03*
%TO.P,U1,14,OUT4*%
%TO.N,m2_2*%
X165030000Y-62280000D03*
%TO.P,U1,15,SENSE_B*%
%TO.N,GND*%
X162490000Y-62280000D03*
%TO.P,U1,16*%
%TO.N,N/C*%
X159950000Y-62280000D03*
%TD*%
D21*
%TO.P,D2,1,K*%
%TO.N,12V input*%
X126490000Y-69870000D03*
D11*
%TO.P,D2,2,A*%
%TO.N,m2_2*%
X116330000Y-69870000D03*
%TD*%
D10*
%TO.P,D4,1,K*%
%TO.N,m2_2*%
X142880000Y-65290000D03*
D11*
%TO.P,D4,2,A*%
%TO.N,GND*%
X142880000Y-55130000D03*
%TD*%
D13*
%TO.P,J1,1,Pin_1*%
%TO.N,m1_1*%
X133560000Y-58765000D03*
D14*
%TO.P,J1,2,Pin_2*%
%TO.N,m1_2*%
X128480000Y-58765000D03*
%TD*%
D22*
%TO.N,12V input*%
X104355000Y-68285000D03*
%TO.N,m2_1*%
X142020000Y-60630000D03*
%TO.N,m1_2*%
X154370000Y-59640000D03*
%TO.N,m1_1*%
X150830000Y-58690000D03*
%TD*%
D23*
%TO.N,5V Vcc*%
X177908892Y-56439000D02*
X178671000Y-57201108D01*
X109520000Y-58730000D02*
X114671000Y-53579000D01*
X161409000Y-56439000D02*
X177908892Y-56439000D01*
X178671000Y-61339000D02*
X177730000Y-62280000D01*
X158549000Y-53579000D02*
X161409000Y-56439000D01*
X114671000Y-53579000D02*
X158549000Y-53579000D01*
X178671000Y-57201108D02*
X178671000Y-61339000D01*
%TO.N,12V input*%
X124939000Y-71421000D02*
X107491000Y-71421000D01*
X107491000Y-71421000D02*
X104355000Y-68285000D01*
X141531000Y-71959000D02*
X143770000Y-69720000D01*
X126490000Y-69870000D02*
X124939000Y-71421000D01*
X128579000Y-71959000D02*
X141531000Y-71959000D01*
X126490000Y-69870000D02*
X128579000Y-71959000D01*
D24*
%TO.N,m2_1*%
X128010133Y-60630000D02*
X126145133Y-58765000D01*
X167570000Y-62280000D02*
X166001000Y-63849000D01*
X126145133Y-58765000D02*
X121215000Y-58765000D01*
X151971000Y-63849000D02*
X150510000Y-65310000D01*
X142020000Y-60630000D02*
X128010133Y-60630000D01*
X166001000Y-63849000D02*
X151971000Y-63849000D01*
%TO.N,m2_2*%
X141050000Y-67120000D02*
X142880000Y-65290000D01*
X116330000Y-69870000D02*
X116330000Y-69920000D01*
X147441000Y-60729000D02*
X142880000Y-65290000D01*
X165030000Y-62280000D02*
X163479000Y-60729000D01*
X141050000Y-67190000D02*
X141050000Y-67120000D01*
X119010000Y-67190000D02*
X141050000Y-67190000D01*
X116330000Y-69920000D02*
X116340000Y-69930000D01*
X163479000Y-60729000D02*
X147441000Y-60729000D01*
X116330000Y-69870000D02*
X119010000Y-67190000D01*
%TO.N,m1_2*%
X144790000Y-59640000D02*
X139120000Y-65310000D01*
X154370000Y-59640000D02*
X144790000Y-59640000D01*
%TO.N,m1_1*%
X150755000Y-58765000D02*
X150830000Y-58690000D01*
X133560000Y-58765000D02*
X150755000Y-58765000D01*
%TO.N,in1_1*%
X168959000Y-68749000D02*
X168959000Y-59489000D01*
X170110000Y-69900000D02*
X168959000Y-68749000D01*
X168959000Y-59489000D02*
X167210000Y-57740000D01*
%TO.N,in2_2*%
X170290000Y-62280000D02*
X170110000Y-62280000D01*
X174830000Y-57740000D02*
X170290000Y-62280000D01*
%TO.N,en2*%
X177370000Y-57740000D02*
X172830000Y-62280000D01*
X172830000Y-62280000D02*
X172650000Y-62280000D01*
%TD*%
%TA.AperFunction,Conductor*%
%TO.N,GND*%
G36*
X113745809Y-53230185D02*
G01*
X113791564Y-53282989D01*
X113801508Y-53352147D01*
X113772483Y-53415703D01*
X113766451Y-53422181D01*
X110295449Y-56893181D01*
X110234126Y-56926666D01*
X110207768Y-56929500D01*
X108419998Y-56929500D01*
X108419981Y-56929501D01*
X108317203Y-56940000D01*
X108317200Y-56940001D01*
X108150668Y-56995185D01*
X108150663Y-56995187D01*
X108001342Y-57087289D01*
X107877289Y-57211342D01*
X107785187Y-57360663D01*
X107785185Y-57360668D01*
X107757349Y-57444670D01*
X107730001Y-57527203D01*
X107730001Y-57527204D01*
X107730000Y-57527204D01*
X107719500Y-57629983D01*
X107719500Y-59830001D01*
X107719501Y-59830018D01*
X107730000Y-59932796D01*
X107730001Y-59932799D01*
X107785185Y-60099331D01*
X107785187Y-60099336D01*
X107798912Y-60121587D01*
X107877288Y-60248656D01*
X108001344Y-60372712D01*
X108150666Y-60464814D01*
X108317203Y-60519999D01*
X108419991Y-60530500D01*
X110620008Y-60530499D01*
X110722797Y-60519999D01*
X110889334Y-60464814D01*
X111038656Y-60372712D01*
X111162712Y-60248656D01*
X111254814Y-60099334D01*
X111309999Y-59932797D01*
X111320500Y-59830009D01*
X111320499Y-58646995D01*
X114334500Y-58646995D01*
X114334500Y-58883004D01*
X114334501Y-58883020D01*
X114364407Y-59110185D01*
X114365307Y-59117014D01*
X114377626Y-59162989D01*
X114426394Y-59344993D01*
X114516714Y-59563045D01*
X114516719Y-59563056D01*
X114587677Y-59685957D01*
X114634727Y-59767450D01*
X114634729Y-59767453D01*
X114634730Y-59767454D01*
X114778406Y-59954697D01*
X114778412Y-59954704D01*
X114945295Y-60121587D01*
X114945302Y-60121593D01*
X115055306Y-60206001D01*
X115132550Y-60265273D01*
X115239151Y-60326819D01*
X115336943Y-60383280D01*
X115336948Y-60383282D01*
X115336951Y-60383284D01*
X115555007Y-60473606D01*
X115782986Y-60534693D01*
X116016989Y-60565500D01*
X116016996Y-60565500D01*
X116253004Y-60565500D01*
X116253011Y-60565500D01*
X116487014Y-60534693D01*
X116714993Y-60473606D01*
X116933049Y-60383284D01*
X117137450Y-60265273D01*
X117324699Y-60121592D01*
X117491592Y-59954699D01*
X117635273Y-59767450D01*
X117753284Y-59563049D01*
X117843606Y-59344993D01*
X117904693Y-59117014D01*
X117935500Y-58883011D01*
X117935500Y-58646989D01*
X117904693Y-58412986D01*
X117843606Y-58185007D01*
X117753284Y-57966951D01*
X117753282Y-57966948D01*
X117753280Y-57966943D01*
X117708568Y-57889500D01*
X117635273Y-57762550D01*
X117491592Y-57575301D01*
X117491587Y-57575295D01*
X117324704Y-57408412D01*
X117324697Y-57408406D01*
X117137454Y-57264730D01*
X117137453Y-57264729D01*
X117137450Y-57264727D01*
X117044988Y-57211344D01*
X116933056Y-57146719D01*
X116933045Y-57146714D01*
X116714993Y-57056394D01*
X116617180Y-57030185D01*
X116487014Y-56995307D01*
X116487013Y-56995306D01*
X116487010Y-56995306D01*
X116253020Y-56964501D01*
X116253017Y-56964500D01*
X116253011Y-56964500D01*
X116016989Y-56964500D01*
X116016983Y-56964500D01*
X116016979Y-56964501D01*
X115782989Y-56995306D01*
X115555006Y-57056394D01*
X115336954Y-57146714D01*
X115336943Y-57146719D01*
X115132545Y-57264730D01*
X114945302Y-57408406D01*
X114945295Y-57408412D01*
X114778412Y-57575295D01*
X114778406Y-57575302D01*
X114634730Y-57762545D01*
X114516719Y-57966943D01*
X114516714Y-57966954D01*
X114426394Y-58185006D01*
X114365306Y-58412989D01*
X114334501Y-58646979D01*
X114334500Y-58646995D01*
X111320499Y-58646995D01*
X111320499Y-58042228D01*
X111340184Y-57975190D01*
X111356813Y-57954553D01*
X114945549Y-54365819D01*
X115006872Y-54332334D01*
X115033230Y-54329500D01*
X137539993Y-54329500D01*
X137607032Y-54349185D01*
X137652787Y-54401989D01*
X137662731Y-54471147D01*
X137650477Y-54509796D01*
X137637220Y-54535813D01*
X137559397Y-54775330D01*
X137520000Y-55024071D01*
X137520000Y-55275928D01*
X137559397Y-55524669D01*
X137637219Y-55764184D01*
X137751557Y-55988583D01*
X137825748Y-56090697D01*
X137825748Y-56090698D01*
X138596212Y-55320233D01*
X138607482Y-55362292D01*
X138679890Y-55487708D01*
X138782292Y-55590110D01*
X138907708Y-55662518D01*
X138949765Y-55673787D01*
X138179300Y-56444250D01*
X138281416Y-56518442D01*
X138505815Y-56632780D01*
X138745330Y-56710602D01*
X138994072Y-56750000D01*
X139245928Y-56750000D01*
X139494669Y-56710602D01*
X139734184Y-56632780D01*
X139958575Y-56518446D01*
X139958581Y-56518442D01*
X140060697Y-56444250D01*
X140060698Y-56444250D01*
X139290234Y-55673787D01*
X139332292Y-55662518D01*
X139457708Y-55590110D01*
X139560110Y-55487708D01*
X139632518Y-55362292D01*
X139643787Y-55320234D01*
X140414250Y-56090698D01*
X140414250Y-56090697D01*
X140488442Y-55988581D01*
X140488446Y-55988575D01*
X140602780Y-55764184D01*
X140680602Y-55524669D01*
X140720000Y-55275928D01*
X140720000Y-55024071D01*
X140680602Y-54775330D01*
X140602779Y-54535813D01*
X140589523Y-54509796D01*
X140576626Y-54441127D01*
X140602902Y-54376386D01*
X140660008Y-54336129D01*
X140700007Y-54329500D01*
X141289802Y-54329500D01*
X141356841Y-54349185D01*
X141402596Y-54401989D01*
X141412540Y-54471147D01*
X141400288Y-54509793D01*
X141397219Y-54515815D01*
X141319397Y-54755330D01*
X141280000Y-55004071D01*
X141280000Y-55255928D01*
X141319397Y-55504669D01*
X141397219Y-55744184D01*
X141511557Y-55968583D01*
X141585748Y-56070697D01*
X141585748Y-56070698D01*
X142356212Y-55300233D01*
X142367482Y-55342292D01*
X142439890Y-55467708D01*
X142542292Y-55570110D01*
X142667708Y-55642518D01*
X142709765Y-55653787D01*
X141939300Y-56424250D01*
X142041416Y-56498442D01*
X142265815Y-56612780D01*
X142505330Y-56690602D01*
X142754072Y-56730000D01*
X143005928Y-56730000D01*
X143254669Y-56690602D01*
X143494184Y-56612780D01*
X143718575Y-56498446D01*
X143718581Y-56498442D01*
X143820697Y-56424250D01*
X143820698Y-56424250D01*
X143050234Y-55653787D01*
X143092292Y-55642518D01*
X143217708Y-55570110D01*
X143320110Y-55467708D01*
X143392518Y-55342292D01*
X143403787Y-55300234D01*
X144174250Y-56070698D01*
X144174250Y-56070697D01*
X144248442Y-55968581D01*
X144248446Y-55968575D01*
X144362780Y-55744184D01*
X144440602Y-55504669D01*
X144480000Y-55255928D01*
X144480000Y-55004071D01*
X144440602Y-54755330D01*
X144362780Y-54515815D01*
X144359712Y-54509793D01*
X144346817Y-54441124D01*
X144373094Y-54376384D01*
X144430201Y-54336128D01*
X144470198Y-54329500D01*
X144855500Y-54329500D01*
X144922539Y-54349185D01*
X144968294Y-54401989D01*
X144979500Y-54453500D01*
X144979500Y-56030017D01*
X144990000Y-56132796D01*
X145045185Y-56299332D01*
X145045187Y-56299337D01*
X145080070Y-56355890D01*
X145137288Y-56448656D01*
X145261344Y-56572712D01*
X145410665Y-56664814D01*
X145577202Y-56719999D01*
X145679990Y-56730500D01*
X145679995Y-56730500D01*
X147480005Y-56730500D01*
X147480010Y-56730500D01*
X147582798Y-56719999D01*
X147749335Y-56664814D01*
X147898656Y-56572712D01*
X148022712Y-56448656D01*
X148114814Y-56299335D01*
X148169999Y-56132798D01*
X148180500Y-56030010D01*
X148180500Y-54453500D01*
X148200185Y-54386461D01*
X148252989Y-54340706D01*
X148304500Y-54329500D01*
X148929993Y-54329500D01*
X148997032Y-54349185D01*
X149042787Y-54401989D01*
X149052731Y-54471147D01*
X149040477Y-54509796D01*
X149027220Y-54535813D01*
X148949397Y-54775330D01*
X148910000Y-55024071D01*
X148910000Y-55275928D01*
X148949397Y-55524669D01*
X149027219Y-55764184D01*
X149141557Y-55988583D01*
X149215748Y-56090697D01*
X149215748Y-56090698D01*
X149986212Y-55320233D01*
X149997482Y-55362292D01*
X150069890Y-55487708D01*
X150172292Y-55590110D01*
X150297708Y-55662518D01*
X150339765Y-55673787D01*
X149569300Y-56444250D01*
X149671416Y-56518442D01*
X149895815Y-56632780D01*
X150135330Y-56710602D01*
X150384072Y-56750000D01*
X150635928Y-56750000D01*
X150884669Y-56710602D01*
X151124184Y-56632780D01*
X151348575Y-56518446D01*
X151348581Y-56518442D01*
X151450697Y-56444250D01*
X151450698Y-56444250D01*
X150680234Y-55673787D01*
X150722292Y-55662518D01*
X150847708Y-55590110D01*
X150950110Y-55487708D01*
X151022518Y-55362292D01*
X151033787Y-55320234D01*
X151804250Y-56090698D01*
X151804250Y-56090697D01*
X151878442Y-55988581D01*
X151878446Y-55988575D01*
X151992780Y-55764184D01*
X152070602Y-55524669D01*
X152110000Y-55275928D01*
X152110000Y-55024071D01*
X152070602Y-54775330D01*
X151992779Y-54535813D01*
X151979523Y-54509796D01*
X151966626Y-54441127D01*
X151992902Y-54376386D01*
X152050008Y-54336129D01*
X152090007Y-54329500D01*
X152784338Y-54329500D01*
X152851377Y-54349185D01*
X152897132Y-54401989D01*
X152907076Y-54471147D01*
X152894822Y-54509797D01*
X152886760Y-54525617D01*
X152808910Y-54765214D01*
X152777730Y-54962074D01*
X152769500Y-55014038D01*
X152769500Y-55265962D01*
X152773711Y-55292547D01*
X152808910Y-55514785D01*
X152886760Y-55754383D01*
X152909828Y-55799655D01*
X152995901Y-55968583D01*
X153001132Y-55978848D01*
X153149201Y-56182649D01*
X153149205Y-56182654D01*
X153327345Y-56360794D01*
X153327350Y-56360798D01*
X153505117Y-56489952D01*
X153531155Y-56508870D01*
X153656448Y-56572710D01*
X153755616Y-56623239D01*
X153755618Y-56623239D01*
X153755621Y-56623241D01*
X153995215Y-56701090D01*
X154244038Y-56740500D01*
X154244039Y-56740500D01*
X154495961Y-56740500D01*
X154495962Y-56740500D01*
X154744785Y-56701090D01*
X154984379Y-56623241D01*
X155208845Y-56508870D01*
X155412656Y-56360793D01*
X155590793Y-56182656D01*
X155738870Y-55978845D01*
X155853241Y-55754379D01*
X155931090Y-55514785D01*
X155970500Y-55265962D01*
X155970500Y-55014038D01*
X155931090Y-54765215D01*
X155853241Y-54525621D01*
X155845177Y-54509796D01*
X155832281Y-54441128D01*
X155858556Y-54376387D01*
X155915662Y-54336129D01*
X155955662Y-54329500D01*
X158186770Y-54329500D01*
X158253809Y-54349185D01*
X158274451Y-54365819D01*
X160930586Y-57021954D01*
X160960058Y-57041645D01*
X161004270Y-57071186D01*
X161053505Y-57104084D01*
X161053506Y-57104084D01*
X161053507Y-57104085D01*
X161053509Y-57104086D01*
X161156423Y-57146714D01*
X161190087Y-57160658D01*
X161190091Y-57160658D01*
X161190092Y-57160659D01*
X161335079Y-57189500D01*
X161335082Y-57189500D01*
X161335083Y-57189500D01*
X161482918Y-57189500D01*
X163195500Y-57189500D01*
X163262539Y-57209185D01*
X163308294Y-57261989D01*
X163319500Y-57313500D01*
X163319500Y-58637870D01*
X163319501Y-58637876D01*
X163325908Y-58697483D01*
X163376202Y-58832328D01*
X163376206Y-58832335D01*
X163462452Y-58947544D01*
X163462455Y-58947547D01*
X163577664Y-59033793D01*
X163577671Y-59033797D01*
X163712517Y-59084091D01*
X163712516Y-59084091D01*
X163719444Y-59084835D01*
X163772127Y-59090500D01*
X165567872Y-59090499D01*
X165627483Y-59084091D01*
X165762331Y-59033796D01*
X165877546Y-58947546D01*
X165963796Y-58832331D01*
X166012810Y-58700916D01*
X166054681Y-58644984D01*
X166120145Y-58620566D01*
X166188418Y-58635417D01*
X166216673Y-58656569D01*
X166330213Y-58770109D01*
X166502179Y-58895048D01*
X166502181Y-58895049D01*
X166502184Y-58895051D01*
X166691588Y-58991557D01*
X166893757Y-59057246D01*
X167103713Y-59090500D01*
X167103714Y-59090500D01*
X167316286Y-59090500D01*
X167316287Y-59090500D01*
X167458623Y-59067956D01*
X167531055Y-59056484D01*
X167531315Y-59058128D01*
X167593852Y-59061250D01*
X167640711Y-59090657D01*
X168272181Y-59722127D01*
X168305666Y-59783450D01*
X168308500Y-59809808D01*
X168308500Y-60594349D01*
X168288815Y-60661388D01*
X168236011Y-60707143D01*
X168166853Y-60717087D01*
X168128206Y-60704834D01*
X168069226Y-60674782D01*
X167874534Y-60611522D01*
X167699995Y-60583878D01*
X167672352Y-60579500D01*
X167467648Y-60579500D01*
X167443329Y-60583351D01*
X167265465Y-60611522D01*
X167070776Y-60674781D01*
X166888386Y-60767715D01*
X166722786Y-60888028D01*
X166578028Y-61032786D01*
X166457715Y-61198386D01*
X166410485Y-61291080D01*
X166362510Y-61341876D01*
X166294689Y-61358671D01*
X166228554Y-61336134D01*
X166189515Y-61291080D01*
X166171387Y-61255502D01*
X166142287Y-61198390D01*
X166134556Y-61187749D01*
X166021971Y-61032786D01*
X165877213Y-60888028D01*
X165711613Y-60767715D01*
X165711612Y-60767714D01*
X165711610Y-60767713D01*
X165646687Y-60734633D01*
X165529223Y-60674781D01*
X165334534Y-60611522D01*
X165159995Y-60583878D01*
X165132352Y-60579500D01*
X164927648Y-60579500D01*
X164903329Y-60583351D01*
X164725465Y-60611522D01*
X164573759Y-60660815D01*
X164530781Y-60674780D01*
X164530778Y-60674781D01*
X164530776Y-60674782D01*
X164487796Y-60696681D01*
X164419127Y-60709576D01*
X164354387Y-60683299D01*
X164343822Y-60673876D01*
X163893674Y-60223727D01*
X163893673Y-60223726D01*
X163809190Y-60167277D01*
X163787127Y-60152535D01*
X163707873Y-60119707D01*
X163668744Y-60103499D01*
X163668738Y-60103497D01*
X163543071Y-60078500D01*
X163543069Y-60078500D01*
X155240401Y-60078500D01*
X155173362Y-60058815D01*
X155127607Y-60006011D01*
X155117663Y-59936853D01*
X155125840Y-59907047D01*
X155125855Y-59907011D01*
X155139737Y-59873497D01*
X155170500Y-59718842D01*
X155170500Y-59561158D01*
X155170500Y-59561155D01*
X155170499Y-59561153D01*
X155166192Y-59539500D01*
X155139737Y-59406503D01*
X155096526Y-59302181D01*
X155079397Y-59260827D01*
X155079390Y-59260814D01*
X154991789Y-59129711D01*
X154991786Y-59129707D01*
X154880292Y-59018213D01*
X154880288Y-59018210D01*
X154749185Y-58930609D01*
X154749172Y-58930602D01*
X154603501Y-58870264D01*
X154603489Y-58870261D01*
X154448845Y-58839500D01*
X154448842Y-58839500D01*
X154291158Y-58839500D01*
X154291155Y-58839500D01*
X154136510Y-58870261D01*
X154136498Y-58870264D01*
X153990827Y-58930602D01*
X153990820Y-58930606D01*
X153965467Y-58947547D01*
X153933955Y-58968602D01*
X153867279Y-58989480D01*
X153865065Y-58989500D01*
X151737703Y-58989500D01*
X151670664Y-58969815D01*
X151624909Y-58917011D01*
X151614965Y-58847853D01*
X151616086Y-58841309D01*
X151630499Y-58768846D01*
X151630500Y-58768844D01*
X151630500Y-58611155D01*
X151630499Y-58611153D01*
X151599737Y-58456503D01*
X151599735Y-58456498D01*
X151539397Y-58310827D01*
X151539390Y-58310814D01*
X151451789Y-58179711D01*
X151451786Y-58179707D01*
X151340292Y-58068213D01*
X151340288Y-58068210D01*
X151209185Y-57980609D01*
X151209172Y-57980602D01*
X151063501Y-57920264D01*
X151063489Y-57920261D01*
X150908845Y-57889500D01*
X150908842Y-57889500D01*
X150751158Y-57889500D01*
X150751155Y-57889500D01*
X150596510Y-57920261D01*
X150596498Y-57920264D01*
X150450827Y-57980602D01*
X150450814Y-57980609D01*
X150319711Y-58068210D01*
X150319707Y-58068213D01*
X150309740Y-58078181D01*
X150248417Y-58111666D01*
X150222059Y-58114500D01*
X135484499Y-58114500D01*
X135417460Y-58094815D01*
X135371705Y-58042011D01*
X135360499Y-57990500D01*
X135360499Y-57664998D01*
X135360498Y-57664981D01*
X135349999Y-57562203D01*
X135349998Y-57562200D01*
X135338401Y-57527203D01*
X135294814Y-57395666D01*
X135202712Y-57246344D01*
X135078656Y-57122288D01*
X134929334Y-57030186D01*
X134762797Y-56975001D01*
X134762795Y-56975000D01*
X134660010Y-56964500D01*
X132459998Y-56964500D01*
X132459981Y-56964501D01*
X132357203Y-56975000D01*
X132357200Y-56975001D01*
X132190668Y-57030185D01*
X132190663Y-57030187D01*
X132041342Y-57122289D01*
X131917289Y-57246342D01*
X131825187Y-57395663D01*
X131825185Y-57395668D01*
X131820962Y-57408412D01*
X131770001Y-57562203D01*
X131770001Y-57562204D01*
X131770000Y-57562204D01*
X131759500Y-57664983D01*
X131759500Y-57664996D01*
X131759501Y-59855500D01*
X131739816Y-59922539D01*
X131687013Y-59968294D01*
X131635501Y-59979500D01*
X130069009Y-59979500D01*
X130001970Y-59959815D01*
X129956215Y-59907011D01*
X129946271Y-59837853D01*
X129970632Y-59780016D01*
X129980268Y-59767457D01*
X129980270Y-59767454D01*
X129980273Y-59767450D01*
X130098284Y-59563049D01*
X130188606Y-59344993D01*
X130249693Y-59117014D01*
X130280500Y-58883011D01*
X130280500Y-58646989D01*
X130249693Y-58412986D01*
X130188606Y-58185007D01*
X130098284Y-57966951D01*
X130098282Y-57966948D01*
X130098280Y-57966943D01*
X130053568Y-57889500D01*
X129980273Y-57762550D01*
X129836592Y-57575301D01*
X129836587Y-57575295D01*
X129669704Y-57408412D01*
X129669697Y-57408406D01*
X129482454Y-57264730D01*
X129482453Y-57264729D01*
X129482450Y-57264727D01*
X129389988Y-57211344D01*
X129278056Y-57146719D01*
X129278045Y-57146714D01*
X129059993Y-57056394D01*
X128962180Y-57030185D01*
X128832014Y-56995307D01*
X128832013Y-56995306D01*
X128832010Y-56995306D01*
X128598020Y-56964501D01*
X128598017Y-56964500D01*
X128598011Y-56964500D01*
X128361989Y-56964500D01*
X128361983Y-56964500D01*
X128361979Y-56964501D01*
X128127989Y-56995306D01*
X127900006Y-57056394D01*
X127681954Y-57146714D01*
X127681943Y-57146719D01*
X127477545Y-57264730D01*
X127290302Y-57408406D01*
X127290295Y-57408412D01*
X127123412Y-57575295D01*
X127123406Y-57575302D01*
X126979730Y-57762545D01*
X126861719Y-57966943D01*
X126861714Y-57966954D01*
X126771392Y-58185010D01*
X126766475Y-58203360D01*
X126730107Y-58263019D01*
X126667258Y-58293544D01*
X126597883Y-58285246D01*
X126565008Y-58262993D01*
X126564517Y-58263592D01*
X126559806Y-58259726D01*
X126559802Y-58259723D01*
X126453260Y-58188535D01*
X126444740Y-58185006D01*
X126334877Y-58139499D01*
X126334871Y-58139497D01*
X126209204Y-58114500D01*
X126209202Y-58114500D01*
X123139499Y-58114500D01*
X123072460Y-58094815D01*
X123026705Y-58042011D01*
X123015499Y-57990500D01*
X123015499Y-57664998D01*
X123015498Y-57664981D01*
X123004999Y-57562203D01*
X123004998Y-57562200D01*
X122993401Y-57527203D01*
X122949814Y-57395666D01*
X122857712Y-57246344D01*
X122733656Y-57122288D01*
X122584334Y-57030186D01*
X122417797Y-56975001D01*
X122417795Y-56975000D01*
X122315010Y-56964500D01*
X120114998Y-56964500D01*
X120114981Y-56964501D01*
X120012203Y-56975000D01*
X120012200Y-56975001D01*
X119845668Y-57030185D01*
X119845663Y-57030187D01*
X119696342Y-57122289D01*
X119572289Y-57246342D01*
X119480187Y-57395663D01*
X119480185Y-57395668D01*
X119475962Y-57408412D01*
X119425001Y-57562203D01*
X119425001Y-57562204D01*
X119425000Y-57562204D01*
X119414500Y-57664983D01*
X119414500Y-59865001D01*
X119414501Y-59865018D01*
X119425000Y-59967796D01*
X119425001Y-59967799D01*
X119480185Y-60134331D01*
X119480187Y-60134336D01*
X119515069Y-60190888D01*
X119572288Y-60283656D01*
X119696344Y-60407712D01*
X119845666Y-60499814D01*
X120012203Y-60554999D01*
X120114991Y-60565500D01*
X122315008Y-60565499D01*
X122417797Y-60554999D01*
X122584334Y-60499814D01*
X122733656Y-60407712D01*
X122857712Y-60283656D01*
X122949814Y-60134334D01*
X123004999Y-59967797D01*
X123015500Y-59865009D01*
X123015500Y-59539500D01*
X123035185Y-59472461D01*
X123087989Y-59426706D01*
X123139500Y-59415500D01*
X125824325Y-59415500D01*
X125891364Y-59435185D01*
X125912006Y-59451819D01*
X127595457Y-61135271D01*
X127595460Y-61135274D01*
X127689919Y-61198389D01*
X127693966Y-61201093D01*
X127702006Y-61206465D01*
X127820389Y-61255501D01*
X127820393Y-61255501D01*
X127820394Y-61255502D01*
X127946061Y-61280500D01*
X127946064Y-61280500D01*
X141515065Y-61280500D01*
X141582104Y-61300185D01*
X141583909Y-61301366D01*
X141640821Y-61339394D01*
X141640823Y-61339395D01*
X141640827Y-61339397D01*
X141768360Y-61392222D01*
X141786503Y-61399737D01*
X141806779Y-61403770D01*
X141829062Y-61408203D01*
X141890973Y-61440588D01*
X141925547Y-61501303D01*
X141921808Y-61571073D01*
X141892552Y-61617501D01*
X139836873Y-63673181D01*
X139775550Y-63706666D01*
X139749192Y-63709500D01*
X138219982Y-63709500D01*
X138117203Y-63720000D01*
X138117202Y-63720001D01*
X138034669Y-63747349D01*
X137950667Y-63775185D01*
X137950662Y-63775187D01*
X137801342Y-63867289D01*
X137677289Y-63991342D01*
X137585187Y-64140662D01*
X137585186Y-64140665D01*
X137530001Y-64307202D01*
X137530001Y-64307203D01*
X137530000Y-64307203D01*
X137519500Y-64409982D01*
X137519500Y-66210017D01*
X137530000Y-66312796D01*
X137530001Y-66312798D01*
X137551109Y-66376497D01*
X137553511Y-66446324D01*
X137517779Y-66506366D01*
X137455259Y-66537559D01*
X137433403Y-66539500D01*
X118945929Y-66539500D01*
X118820261Y-66564497D01*
X118820255Y-66564499D01*
X118701870Y-66613535D01*
X118595331Y-66684722D01*
X118595324Y-66684728D01*
X116959553Y-68320499D01*
X116898230Y-68353984D01*
X116833554Y-68350749D01*
X116704787Y-68308910D01*
X116505133Y-68277288D01*
X116455962Y-68269500D01*
X116204038Y-68269500D01*
X116137738Y-68280001D01*
X115955214Y-68308910D01*
X115715616Y-68386760D01*
X115491151Y-68501132D01*
X115287350Y-68649201D01*
X115287345Y-68649205D01*
X115109205Y-68827345D01*
X115109201Y-68827350D01*
X114961132Y-69031151D01*
X114846760Y-69255616D01*
X114768910Y-69495214D01*
X114768152Y-69500000D01*
X114729500Y-69744038D01*
X114729500Y-69995962D01*
X114768910Y-70244785D01*
X114846759Y-70484379D01*
X114846761Y-70484382D01*
X114846762Y-70484386D01*
X114849728Y-70490208D01*
X114862623Y-70558878D01*
X114836345Y-70623617D01*
X114779237Y-70663873D01*
X114739242Y-70670500D01*
X107853230Y-70670500D01*
X107786191Y-70650815D01*
X107765549Y-70634181D01*
X105101071Y-67969703D01*
X105074191Y-67929475D01*
X105064394Y-67905821D01*
X105064389Y-67905814D01*
X104976789Y-67774710D01*
X104865292Y-67663213D01*
X104865288Y-67663210D01*
X104734185Y-67575609D01*
X104734172Y-67575602D01*
X104588501Y-67515264D01*
X104588489Y-67515261D01*
X104433845Y-67484500D01*
X104433842Y-67484500D01*
X104276158Y-67484500D01*
X104276155Y-67484500D01*
X104121510Y-67515261D01*
X104121498Y-67515264D01*
X103975827Y-67575602D01*
X103975814Y-67575609D01*
X103844711Y-67663210D01*
X103844707Y-67663213D01*
X103733213Y-67774707D01*
X103733210Y-67774711D01*
X103645609Y-67905814D01*
X103645602Y-67905827D01*
X103585264Y-68051498D01*
X103585261Y-68051510D01*
X103554500Y-68206153D01*
X103554500Y-68363846D01*
X103585261Y-68518489D01*
X103585264Y-68518501D01*
X103645602Y-68664172D01*
X103645609Y-68664185D01*
X103733210Y-68795288D01*
X103733213Y-68795292D01*
X103844710Y-68906789D01*
X103975815Y-68994390D01*
X103975821Y-68994394D01*
X103999475Y-69004191D01*
X104039703Y-69031071D01*
X107006451Y-71997819D01*
X107039936Y-72059142D01*
X107034952Y-72128834D01*
X106993080Y-72184767D01*
X106927616Y-72209184D01*
X106918770Y-72209500D01*
X96044500Y-72209500D01*
X95977461Y-72189815D01*
X95931706Y-72137011D01*
X95920500Y-72085500D01*
X95920500Y-58611995D01*
X97559500Y-58611995D01*
X97559500Y-58848004D01*
X97559501Y-58848020D01*
X97590306Y-59082010D01*
X97651394Y-59309993D01*
X97741714Y-59528045D01*
X97741719Y-59528056D01*
X97761923Y-59563049D01*
X97859727Y-59732450D01*
X97859729Y-59732453D01*
X97859730Y-59732454D01*
X98003406Y-59919697D01*
X98003412Y-59919704D01*
X98170295Y-60086587D01*
X98170302Y-60086593D01*
X98280306Y-60171001D01*
X98357550Y-60230273D01*
X98466775Y-60293334D01*
X98561943Y-60348280D01*
X98561948Y-60348282D01*
X98561951Y-60348284D01*
X98780007Y-60438606D01*
X99007986Y-60499693D01*
X99241989Y-60530500D01*
X99241996Y-60530500D01*
X99478004Y-60530500D01*
X99478011Y-60530500D01*
X99712014Y-60499693D01*
X99939993Y-60438606D01*
X100158049Y-60348284D01*
X100362450Y-60230273D01*
X100549699Y-60086592D01*
X100557791Y-60078500D01*
X100604648Y-60031644D01*
X100716587Y-59919704D01*
X100716592Y-59919699D01*
X100860273Y-59732450D01*
X100978284Y-59528049D01*
X101068606Y-59309993D01*
X101129693Y-59082014D01*
X101160500Y-58848011D01*
X101160500Y-58612014D01*
X102640000Y-58612014D01*
X102640000Y-58847985D01*
X102670799Y-59081914D01*
X102731870Y-59309837D01*
X102822160Y-59527819D01*
X102822165Y-59527828D01*
X102940144Y-59732171D01*
X102940145Y-59732172D01*
X103002721Y-59813723D01*
X103838958Y-58977487D01*
X103863978Y-59037890D01*
X103935112Y-59144351D01*
X104025649Y-59234888D01*
X104132110Y-59306022D01*
X104192511Y-59331041D01*
X103356275Y-60167277D01*
X103437827Y-60229854D01*
X103437828Y-60229855D01*
X103642171Y-60347834D01*
X103642180Y-60347839D01*
X103860163Y-60438129D01*
X103860161Y-60438129D01*
X104088085Y-60499200D01*
X104322014Y-60529999D01*
X104322029Y-60530000D01*
X104557971Y-60530000D01*
X104557985Y-60529999D01*
X104791914Y-60499200D01*
X105019837Y-60438129D01*
X105237819Y-60347839D01*
X105237828Y-60347834D01*
X105442181Y-60229850D01*
X105523723Y-60167279D01*
X105523723Y-60167276D01*
X104687487Y-59331041D01*
X104747890Y-59306022D01*
X104854351Y-59234888D01*
X104944888Y-59144351D01*
X105016022Y-59037890D01*
X105041041Y-58977488D01*
X105877276Y-59813723D01*
X105877279Y-59813723D01*
X105939850Y-59732181D01*
X106057834Y-59527828D01*
X106057839Y-59527819D01*
X106148129Y-59309837D01*
X106209200Y-59081914D01*
X106239999Y-58847985D01*
X106240000Y-58847971D01*
X106240000Y-58612028D01*
X106239999Y-58612014D01*
X106209200Y-58378085D01*
X106148129Y-58150162D01*
X106057839Y-57932180D01*
X106057834Y-57932171D01*
X105939855Y-57727828D01*
X105939854Y-57727827D01*
X105877277Y-57646275D01*
X105041041Y-58482511D01*
X105016022Y-58422110D01*
X104944888Y-58315649D01*
X104854351Y-58225112D01*
X104747890Y-58153978D01*
X104687488Y-58128958D01*
X105523723Y-57292721D01*
X105442172Y-57230145D01*
X105442171Y-57230144D01*
X105237828Y-57112165D01*
X105237819Y-57112160D01*
X105019836Y-57021870D01*
X105019838Y-57021870D01*
X104791914Y-56960799D01*
X104557985Y-56930000D01*
X104322014Y-56930000D01*
X104088085Y-56960799D01*
X103860162Y-57021870D01*
X103642180Y-57112160D01*
X103642171Y-57112165D01*
X103437828Y-57230144D01*
X103437818Y-57230150D01*
X103356275Y-57292720D01*
X103356275Y-57292721D01*
X104192512Y-58128958D01*
X104132110Y-58153978D01*
X104025649Y-58225112D01*
X103935112Y-58315649D01*
X103863978Y-58422110D01*
X103838958Y-58482511D01*
X103002721Y-57646275D01*
X103002720Y-57646275D01*
X102940150Y-57727818D01*
X102940144Y-57727828D01*
X102822165Y-57932171D01*
X102822160Y-57932180D01*
X102731870Y-58150162D01*
X102670799Y-58378085D01*
X102640000Y-58612014D01*
X101160500Y-58612014D01*
X101160500Y-58611989D01*
X101129693Y-58377986D01*
X101068606Y-58150007D01*
X100978284Y-57931951D01*
X100978282Y-57931948D01*
X100978280Y-57931943D01*
X100936118Y-57858918D01*
X100860273Y-57727550D01*
X100743449Y-57575302D01*
X100716593Y-57540302D01*
X100716587Y-57540295D01*
X100549704Y-57373412D01*
X100549697Y-57373406D01*
X100362454Y-57229730D01*
X100362453Y-57229729D01*
X100362450Y-57229727D01*
X100242821Y-57160659D01*
X100158056Y-57111719D01*
X100158045Y-57111714D01*
X99939993Y-57021394D01*
X99842635Y-56995307D01*
X99712014Y-56960307D01*
X99712013Y-56960306D01*
X99712010Y-56960306D01*
X99478020Y-56929501D01*
X99478017Y-56929500D01*
X99478011Y-56929500D01*
X99241989Y-56929500D01*
X99241983Y-56929500D01*
X99241979Y-56929501D01*
X99007989Y-56960306D01*
X98780006Y-57021394D01*
X98561954Y-57111714D01*
X98561943Y-57111719D01*
X98357545Y-57229730D01*
X98170302Y-57373406D01*
X98170295Y-57373412D01*
X98003412Y-57540295D01*
X98003406Y-57540302D01*
X97859730Y-57727545D01*
X97859727Y-57727549D01*
X97859727Y-57727550D01*
X97852014Y-57740909D01*
X97741719Y-57931943D01*
X97741714Y-57931954D01*
X97651394Y-58150006D01*
X97590306Y-58377989D01*
X97559501Y-58611979D01*
X97559500Y-58611995D01*
X95920500Y-58611995D01*
X95920500Y-53334500D01*
X95940185Y-53267461D01*
X95992989Y-53221706D01*
X96044500Y-53210500D01*
X113678770Y-53210500D01*
X113745809Y-53230185D01*
G37*
%TD.AperFunction*%
%TA.AperFunction,Conductor*%
G36*
X158601511Y-61387424D02*
G01*
X158629235Y-61392222D01*
X158634591Y-61397137D01*
X158641563Y-61399185D01*
X158659980Y-61420439D01*
X158680711Y-61439466D01*
X158682559Y-61446496D01*
X158687318Y-61451989D01*
X158691321Y-61479833D01*
X158698473Y-61507040D01*
X158696703Y-61517264D01*
X158697262Y-61521147D01*
X158692455Y-61541817D01*
X158681524Y-61575457D01*
X158681523Y-61575464D01*
X158649500Y-61777648D01*
X158649500Y-62782351D01*
X158681523Y-62984535D01*
X158681523Y-62984538D01*
X158698304Y-63036182D01*
X158700299Y-63106023D01*
X158664219Y-63165856D01*
X158601518Y-63196684D01*
X158580373Y-63198500D01*
X151906929Y-63198500D01*
X151781261Y-63223497D01*
X151781255Y-63223499D01*
X151662874Y-63272534D01*
X151556326Y-63343726D01*
X151556325Y-63343727D01*
X151226873Y-63673181D01*
X151165550Y-63706666D01*
X151139192Y-63709500D01*
X149609982Y-63709500D01*
X149507203Y-63720000D01*
X149507202Y-63720001D01*
X149424669Y-63747349D01*
X149340667Y-63775185D01*
X149340662Y-63775187D01*
X149191342Y-63867289D01*
X149067289Y-63991342D01*
X148975187Y-64140662D01*
X148975186Y-64140665D01*
X148920001Y-64307202D01*
X148920001Y-64307203D01*
X148920000Y-64307203D01*
X148909500Y-64409982D01*
X148909500Y-66210017D01*
X148920000Y-66312796D01*
X148975185Y-66479332D01*
X148975187Y-66479337D01*
X149010070Y-66535890D01*
X149067288Y-66628656D01*
X149191344Y-66752712D01*
X149340665Y-66844814D01*
X149507202Y-66899999D01*
X149609990Y-66910500D01*
X149609995Y-66910500D01*
X151410005Y-66910500D01*
X151410010Y-66910500D01*
X151512798Y-66899999D01*
X151679335Y-66844814D01*
X151828656Y-66752712D01*
X151952712Y-66628656D01*
X152044814Y-66479335D01*
X152099999Y-66312798D01*
X152110500Y-66210010D01*
X152110500Y-64680808D01*
X152119144Y-64651367D01*
X152125668Y-64621381D01*
X152129422Y-64616365D01*
X152130185Y-64613769D01*
X152146819Y-64593127D01*
X152204127Y-64535819D01*
X152265450Y-64502334D01*
X152291808Y-64499500D01*
X152645500Y-64499500D01*
X152712539Y-64519185D01*
X152758294Y-64571989D01*
X152769500Y-64623500D01*
X152769500Y-66200017D01*
X152780000Y-66302796D01*
X152835185Y-66469332D01*
X152835187Y-66469337D01*
X152860758Y-66510794D01*
X152927288Y-66618656D01*
X153051344Y-66742712D01*
X153200665Y-66834814D01*
X153367202Y-66889999D01*
X153469990Y-66900500D01*
X153469995Y-66900500D01*
X155270005Y-66900500D01*
X155270010Y-66900500D01*
X155372798Y-66889999D01*
X155539335Y-66834814D01*
X155688656Y-66742712D01*
X155812712Y-66618656D01*
X155904814Y-66469335D01*
X155959999Y-66302798D01*
X155970500Y-66200010D01*
X155970500Y-64623500D01*
X155990185Y-64556461D01*
X156042989Y-64510706D01*
X156094500Y-64499500D01*
X166065071Y-64499500D01*
X166149615Y-64482682D01*
X166190744Y-64474501D01*
X166309127Y-64425465D01*
X166332286Y-64409991D01*
X166332287Y-64409991D01*
X166394681Y-64368300D01*
X166415669Y-64354277D01*
X166883825Y-63886119D01*
X166945145Y-63852637D01*
X167014836Y-63857621D01*
X167027787Y-63863313D01*
X167070781Y-63885220D01*
X167227124Y-63936018D01*
X167265465Y-63948477D01*
X167366557Y-63964488D01*
X167467648Y-63980500D01*
X167467649Y-63980500D01*
X167672351Y-63980500D01*
X167672352Y-63980500D01*
X167874534Y-63948477D01*
X168069219Y-63885220D01*
X168128205Y-63855164D01*
X168196874Y-63842269D01*
X168261614Y-63868545D01*
X168301872Y-63925651D01*
X168308500Y-63965650D01*
X168308500Y-68214349D01*
X168288815Y-68281388D01*
X168236011Y-68327143D01*
X168166853Y-68337087D01*
X168128206Y-68324834D01*
X168069226Y-68294782D01*
X167874534Y-68231522D01*
X167699995Y-68203878D01*
X167672352Y-68199500D01*
X167467648Y-68199500D01*
X167443329Y-68203351D01*
X167265465Y-68231522D01*
X167070776Y-68294781D01*
X166888386Y-68387715D01*
X166722786Y-68508028D01*
X166578028Y-68652786D01*
X166457715Y-68818386D01*
X166410485Y-68911080D01*
X166362510Y-68961876D01*
X166294689Y-68978671D01*
X166228554Y-68956134D01*
X166189515Y-68911080D01*
X166174265Y-68881151D01*
X166142287Y-68818390D01*
X166125724Y-68795593D01*
X166021971Y-68652786D01*
X165877213Y-68508028D01*
X165711613Y-68387715D01*
X165711612Y-68387714D01*
X165711610Y-68387713D01*
X165639064Y-68350749D01*
X165529223Y-68294781D01*
X165334534Y-68231522D01*
X165159995Y-68203878D01*
X165132352Y-68199500D01*
X164927648Y-68199500D01*
X164903329Y-68203351D01*
X164725465Y-68231522D01*
X164530776Y-68294781D01*
X164348386Y-68387715D01*
X164182786Y-68508028D01*
X164038028Y-68652786D01*
X163917715Y-68818386D01*
X163870485Y-68911080D01*
X163822510Y-68961876D01*
X163754689Y-68978671D01*
X163688554Y-68956134D01*
X163649515Y-68911080D01*
X163634265Y-68881151D01*
X163602287Y-68818390D01*
X163585724Y-68795593D01*
X163481971Y-68652786D01*
X163337213Y-68508028D01*
X163171613Y-68387715D01*
X163171612Y-68387714D01*
X163171610Y-68387713D01*
X163099064Y-68350749D01*
X162989223Y-68294781D01*
X162794534Y-68231522D01*
X162619995Y-68203878D01*
X162592352Y-68199500D01*
X162387648Y-68199500D01*
X162363329Y-68203351D01*
X162185465Y-68231522D01*
X161990776Y-68294781D01*
X161808386Y-68387715D01*
X161642786Y-68508028D01*
X161498032Y-68652782D01*
X161429616Y-68746949D01*
X161374286Y-68789614D01*
X161304672Y-68795593D01*
X161242877Y-68762987D01*
X161211592Y-68713067D01*
X161184358Y-68630880D01*
X161184356Y-68630875D01*
X161092315Y-68481654D01*
X160968345Y-68357684D01*
X160819124Y-68265643D01*
X160819119Y-68265641D01*
X160652697Y-68210494D01*
X160652690Y-68210493D01*
X160549986Y-68200000D01*
X160200000Y-68200000D01*
X160200000Y-69584314D01*
X160195606Y-69579920D01*
X160104394Y-69527259D01*
X160002661Y-69500000D01*
X159897339Y-69500000D01*
X159795606Y-69527259D01*
X159704394Y-69579920D01*
X159700000Y-69584314D01*
X159700000Y-68200000D01*
X159350028Y-68200000D01*
X159350012Y-68200001D01*
X159247302Y-68210494D01*
X159080880Y-68265641D01*
X159080875Y-68265643D01*
X158931654Y-68357684D01*
X158807684Y-68481654D01*
X158715643Y-68630875D01*
X158715641Y-68630880D01*
X158660494Y-68797302D01*
X158660493Y-68797309D01*
X158650000Y-68900013D01*
X158650000Y-69650000D01*
X159634314Y-69650000D01*
X159629920Y-69654394D01*
X159577259Y-69745606D01*
X159550000Y-69847339D01*
X159550000Y-69952661D01*
X159577259Y-70054394D01*
X159629920Y-70145606D01*
X159634314Y-70150000D01*
X158650001Y-70150000D01*
X158650001Y-70899986D01*
X158660494Y-71002697D01*
X158715641Y-71169119D01*
X158715643Y-71169124D01*
X158807684Y-71318345D01*
X158931654Y-71442315D01*
X159080875Y-71534356D01*
X159080880Y-71534358D01*
X159247302Y-71589505D01*
X159247309Y-71589506D01*
X159350019Y-71599999D01*
X159699999Y-71599999D01*
X159700000Y-71599998D01*
X159700000Y-70215686D01*
X159704394Y-70220080D01*
X159795606Y-70272741D01*
X159897339Y-70300000D01*
X160002661Y-70300000D01*
X160104394Y-70272741D01*
X160195606Y-70220080D01*
X160200000Y-70215686D01*
X160200000Y-71599999D01*
X160549972Y-71599999D01*
X160549986Y-71599998D01*
X160652697Y-71589505D01*
X160819119Y-71534358D01*
X160819124Y-71534356D01*
X160968345Y-71442315D01*
X161092315Y-71318345D01*
X161184356Y-71169124D01*
X161184359Y-71169117D01*
X161211592Y-71086932D01*
X161251364Y-71029487D01*
X161315879Y-71002663D01*
X161384655Y-71014977D01*
X161429617Y-71053050D01*
X161498034Y-71147219D01*
X161642786Y-71291971D01*
X161797749Y-71404556D01*
X161808390Y-71412287D01*
X161922639Y-71470500D01*
X161990776Y-71505218D01*
X161990778Y-71505218D01*
X161990781Y-71505220D01*
X162080459Y-71534358D01*
X162185465Y-71568477D01*
X162286557Y-71584488D01*
X162387648Y-71600500D01*
X162387649Y-71600500D01*
X162592351Y-71600500D01*
X162592352Y-71600500D01*
X162794534Y-71568477D01*
X162989219Y-71505220D01*
X163171610Y-71412287D01*
X163264590Y-71344732D01*
X163337213Y-71291971D01*
X163337215Y-71291968D01*
X163337219Y-71291966D01*
X163481966Y-71147219D01*
X163481968Y-71147215D01*
X163481971Y-71147213D01*
X163602284Y-70981614D01*
X163602283Y-70981614D01*
X163602287Y-70981610D01*
X163649516Y-70888917D01*
X163697489Y-70838123D01*
X163765310Y-70821328D01*
X163831445Y-70843865D01*
X163870483Y-70888917D01*
X163896916Y-70940793D01*
X163917715Y-70981614D01*
X164038028Y-71147213D01*
X164182786Y-71291971D01*
X164337749Y-71404556D01*
X164348390Y-71412287D01*
X164462639Y-71470500D01*
X164530776Y-71505218D01*
X164530778Y-71505218D01*
X164530781Y-71505220D01*
X164620459Y-71534358D01*
X164725465Y-71568477D01*
X164826557Y-71584488D01*
X164927648Y-71600500D01*
X164927649Y-71600500D01*
X165132351Y-71600500D01*
X165132352Y-71600500D01*
X165334534Y-71568477D01*
X165529219Y-71505220D01*
X165711610Y-71412287D01*
X165804590Y-71344732D01*
X165877213Y-71291971D01*
X165877215Y-71291968D01*
X165877219Y-71291966D01*
X166021966Y-71147219D01*
X166021968Y-71147215D01*
X166021971Y-71147213D01*
X166142284Y-70981614D01*
X166142283Y-70981614D01*
X166142287Y-70981610D01*
X166189516Y-70888917D01*
X166237489Y-70838123D01*
X166305310Y-70821328D01*
X166371445Y-70843865D01*
X166410483Y-70888917D01*
X166436916Y-70940793D01*
X166457715Y-70981614D01*
X166578028Y-71147213D01*
X166722786Y-71291971D01*
X166877749Y-71404556D01*
X166888390Y-71412287D01*
X167002639Y-71470500D01*
X167070776Y-71505218D01*
X167070778Y-71505218D01*
X167070781Y-71505220D01*
X167160459Y-71534358D01*
X167265465Y-71568477D01*
X167366557Y-71584488D01*
X167467648Y-71600500D01*
X167467649Y-71600500D01*
X167672351Y-71600500D01*
X167672352Y-71600500D01*
X167874534Y-71568477D01*
X168069219Y-71505220D01*
X168251610Y-71412287D01*
X168344590Y-71344732D01*
X168417213Y-71291971D01*
X168417215Y-71291968D01*
X168417219Y-71291966D01*
X168561966Y-71147219D01*
X168561968Y-71147215D01*
X168561971Y-71147213D01*
X168682284Y-70981614D01*
X168682283Y-70981614D01*
X168682287Y-70981610D01*
X168729516Y-70888917D01*
X168777489Y-70838123D01*
X168845310Y-70821328D01*
X168911445Y-70843865D01*
X168950483Y-70888917D01*
X168976916Y-70940793D01*
X168997715Y-70981614D01*
X169118028Y-71147213D01*
X169262786Y-71291971D01*
X169417749Y-71404556D01*
X169428390Y-71412287D01*
X169542639Y-71470500D01*
X169610776Y-71505218D01*
X169610778Y-71505218D01*
X169610781Y-71505220D01*
X169700459Y-71534358D01*
X169805465Y-71568477D01*
X169906557Y-71584488D01*
X170007648Y-71600500D01*
X170007649Y-71600500D01*
X170212351Y-71600500D01*
X170212352Y-71600500D01*
X170414534Y-71568477D01*
X170609219Y-71505220D01*
X170791610Y-71412287D01*
X170884590Y-71344732D01*
X170957213Y-71291971D01*
X170957215Y-71291968D01*
X170957219Y-71291966D01*
X171101966Y-71147219D01*
X171101968Y-71147215D01*
X171101971Y-71147213D01*
X171222284Y-70981614D01*
X171222283Y-70981614D01*
X171222287Y-70981610D01*
X171269516Y-70888917D01*
X171317489Y-70838123D01*
X171385310Y-70821328D01*
X171451445Y-70843865D01*
X171490483Y-70888917D01*
X171516916Y-70940793D01*
X171537715Y-70981614D01*
X171658028Y-71147213D01*
X171802786Y-71291971D01*
X171957749Y-71404556D01*
X171968390Y-71412287D01*
X172082639Y-71470500D01*
X172150776Y-71505218D01*
X172150778Y-71505218D01*
X172150781Y-71505220D01*
X172240459Y-71534358D01*
X172345465Y-71568477D01*
X172446557Y-71584488D01*
X172547648Y-71600500D01*
X172547649Y-71600500D01*
X172752351Y-71600500D01*
X172752352Y-71600500D01*
X172954534Y-71568477D01*
X173149219Y-71505220D01*
X173331610Y-71412287D01*
X173424590Y-71344732D01*
X173497213Y-71291971D01*
X173497215Y-71291968D01*
X173497219Y-71291966D01*
X173641966Y-71147219D01*
X173641968Y-71147215D01*
X173641971Y-71147213D01*
X173762284Y-70981614D01*
X173762283Y-70981614D01*
X173762287Y-70981610D01*
X173809516Y-70888917D01*
X173857489Y-70838123D01*
X173925310Y-70821328D01*
X173991445Y-70843865D01*
X174030483Y-70888917D01*
X174056916Y-70940793D01*
X174077715Y-70981614D01*
X174198028Y-71147213D01*
X174342786Y-71291971D01*
X174497749Y-71404556D01*
X174508390Y-71412287D01*
X174622639Y-71470500D01*
X174690776Y-71505218D01*
X174690778Y-71505218D01*
X174690781Y-71505220D01*
X174780459Y-71534358D01*
X174885465Y-71568477D01*
X174986557Y-71584488D01*
X175087648Y-71600500D01*
X175087649Y-71600500D01*
X175292351Y-71600500D01*
X175292352Y-71600500D01*
X175494534Y-71568477D01*
X175689219Y-71505220D01*
X175871610Y-71412287D01*
X175964590Y-71344732D01*
X176037213Y-71291971D01*
X176037215Y-71291968D01*
X176037219Y-71291966D01*
X176181966Y-71147219D01*
X176181968Y-71147215D01*
X176181971Y-71147213D01*
X176302284Y-70981614D01*
X176302283Y-70981614D01*
X176302287Y-70981610D01*
X176349795Y-70888369D01*
X176397770Y-70837574D01*
X176465591Y-70820779D01*
X176531725Y-70843316D01*
X176570765Y-70888370D01*
X176618140Y-70981349D01*
X176738417Y-71146894D01*
X176738417Y-71146895D01*
X176883104Y-71291582D01*
X177048650Y-71411859D01*
X177230968Y-71504754D01*
X177425578Y-71567988D01*
X177480000Y-71576607D01*
X177480000Y-70215686D01*
X177484394Y-70220080D01*
X177575606Y-70272741D01*
X177677339Y-70300000D01*
X177782661Y-70300000D01*
X177884394Y-70272741D01*
X177975606Y-70220080D01*
X177980000Y-70215686D01*
X177980000Y-71576606D01*
X178034421Y-71567988D01*
X178229031Y-71504754D01*
X178411349Y-71411859D01*
X178576894Y-71291582D01*
X178576895Y-71291582D01*
X178721582Y-71146895D01*
X178721582Y-71146894D01*
X178841859Y-70981349D01*
X178934755Y-70799031D01*
X178997990Y-70604417D01*
X179030000Y-70402317D01*
X179030000Y-70150000D01*
X178045686Y-70150000D01*
X178050080Y-70145606D01*
X178102741Y-70054394D01*
X178130000Y-69952661D01*
X178130000Y-69847339D01*
X178102741Y-69745606D01*
X178050080Y-69654394D01*
X178045686Y-69650000D01*
X179030000Y-69650000D01*
X179030000Y-69397682D01*
X178997990Y-69195582D01*
X178934755Y-69000968D01*
X178841859Y-68818650D01*
X178721582Y-68653105D01*
X178721582Y-68653104D01*
X178576895Y-68508417D01*
X178411349Y-68388140D01*
X178229029Y-68295244D01*
X178034413Y-68232009D01*
X177980000Y-68223390D01*
X177980000Y-69584314D01*
X177975606Y-69579920D01*
X177884394Y-69527259D01*
X177782661Y-69500000D01*
X177677339Y-69500000D01*
X177575606Y-69527259D01*
X177484394Y-69579920D01*
X177480000Y-69584314D01*
X177480000Y-68223390D01*
X177425586Y-68232009D01*
X177230970Y-68295244D01*
X177048650Y-68388140D01*
X176883105Y-68508417D01*
X176883104Y-68508417D01*
X176738417Y-68653104D01*
X176738417Y-68653105D01*
X176618140Y-68818650D01*
X176570765Y-68911629D01*
X176522790Y-68962425D01*
X176454969Y-68979220D01*
X176388834Y-68956682D01*
X176349795Y-68911629D01*
X176334265Y-68881151D01*
X176302287Y-68818390D01*
X176285724Y-68795593D01*
X176181971Y-68652786D01*
X176037213Y-68508028D01*
X175871613Y-68387715D01*
X175871612Y-68387714D01*
X175871610Y-68387713D01*
X175799064Y-68350749D01*
X175689223Y-68294781D01*
X175494534Y-68231522D01*
X175319995Y-68203878D01*
X175292352Y-68199500D01*
X175087648Y-68199500D01*
X175063329Y-68203351D01*
X174885465Y-68231522D01*
X174690776Y-68294781D01*
X174508386Y-68387715D01*
X174342786Y-68508028D01*
X174198028Y-68652786D01*
X174077715Y-68818386D01*
X174030485Y-68911080D01*
X173982510Y-68961876D01*
X173914689Y-68978671D01*
X173848554Y-68956134D01*
X173809515Y-68911080D01*
X173794265Y-68881151D01*
X173762287Y-68818390D01*
X173745724Y-68795593D01*
X173641971Y-68652786D01*
X173497213Y-68508028D01*
X173331613Y-68387715D01*
X173331612Y-68387714D01*
X173331610Y-68387713D01*
X173259064Y-68350749D01*
X173149223Y-68294781D01*
X172954534Y-68231522D01*
X172779995Y-68203878D01*
X172752352Y-68199500D01*
X172547648Y-68199500D01*
X172523329Y-68203351D01*
X172345465Y-68231522D01*
X172150776Y-68294781D01*
X171968386Y-68387715D01*
X171802786Y-68508028D01*
X171658028Y-68652786D01*
X171537715Y-68818386D01*
X171490485Y-68911080D01*
X171442510Y-68961876D01*
X171374689Y-68978671D01*
X171308554Y-68956134D01*
X171269515Y-68911080D01*
X171254265Y-68881151D01*
X171222287Y-68818390D01*
X171205724Y-68795593D01*
X171101971Y-68652786D01*
X170957213Y-68508028D01*
X170791613Y-68387715D01*
X170791612Y-68387714D01*
X170791610Y-68387713D01*
X170719064Y-68350749D01*
X170609223Y-68294781D01*
X170414534Y-68231522D01*
X170239995Y-68203878D01*
X170212352Y-68199500D01*
X170007648Y-68199500D01*
X169965612Y-68206158D01*
X169805464Y-68231523D01*
X169805457Y-68231524D01*
X169771817Y-68242455D01*
X169701976Y-68244450D01*
X169642144Y-68208369D01*
X169611316Y-68145668D01*
X169609500Y-68124524D01*
X169609500Y-64055475D01*
X169629185Y-63988436D01*
X169681989Y-63942681D01*
X169751147Y-63932737D01*
X169771820Y-63937545D01*
X169805458Y-63948475D01*
X169805461Y-63948475D01*
X169805466Y-63948477D01*
X170007648Y-63980500D01*
X170007649Y-63980500D01*
X170212351Y-63980500D01*
X170212352Y-63980500D01*
X170414534Y-63948477D01*
X170609219Y-63885220D01*
X170791610Y-63792287D01*
X170891105Y-63720000D01*
X170957213Y-63671971D01*
X170957215Y-63671968D01*
X170957219Y-63671966D01*
X171101966Y-63527219D01*
X171101968Y-63527215D01*
X171101971Y-63527213D01*
X171222284Y-63361614D01*
X171222285Y-63361613D01*
X171222287Y-63361610D01*
X171269516Y-63268917D01*
X171317489Y-63218123D01*
X171385310Y-63201328D01*
X171451445Y-63223865D01*
X171490483Y-63268917D01*
X171492327Y-63272535D01*
X171537715Y-63361614D01*
X171658028Y-63527213D01*
X171802786Y-63671971D01*
X171917324Y-63755186D01*
X171968390Y-63792287D01*
X172084607Y-63851503D01*
X172150776Y-63885218D01*
X172150778Y-63885218D01*
X172150781Y-63885220D01*
X172255137Y-63919127D01*
X172345465Y-63948477D01*
X172446557Y-63964488D01*
X172547648Y-63980500D01*
X172547649Y-63980500D01*
X172752351Y-63980500D01*
X172752352Y-63980500D01*
X172954534Y-63948477D01*
X173149219Y-63885220D01*
X173331610Y-63792287D01*
X173431105Y-63720000D01*
X173497213Y-63671971D01*
X173497215Y-63671968D01*
X173497219Y-63671966D01*
X173641966Y-63527219D01*
X173641968Y-63527215D01*
X173641971Y-63527213D01*
X173762284Y-63361614D01*
X173762285Y-63361613D01*
X173762287Y-63361610D01*
X173809516Y-63268917D01*
X173857489Y-63218123D01*
X173925310Y-63201328D01*
X173991445Y-63223865D01*
X174030483Y-63268917D01*
X174032327Y-63272535D01*
X174077715Y-63361614D01*
X174198028Y-63527213D01*
X174342786Y-63671971D01*
X174457324Y-63755186D01*
X174508390Y-63792287D01*
X174624607Y-63851503D01*
X174690776Y-63885218D01*
X174690778Y-63885218D01*
X174690781Y-63885220D01*
X174795137Y-63919127D01*
X174885465Y-63948477D01*
X174986557Y-63964488D01*
X175087648Y-63980500D01*
X175087649Y-63980500D01*
X175292351Y-63980500D01*
X175292352Y-63980500D01*
X175494534Y-63948477D01*
X175689219Y-63885220D01*
X175871610Y-63792287D01*
X175971105Y-63720000D01*
X176037213Y-63671971D01*
X176037215Y-63671968D01*
X176037219Y-63671966D01*
X176181966Y-63527219D01*
X176181968Y-63527215D01*
X176181971Y-63527213D01*
X176302284Y-63361614D01*
X176302285Y-63361613D01*
X176302287Y-63361610D01*
X176349516Y-63268917D01*
X176397489Y-63218123D01*
X176465310Y-63201328D01*
X176531445Y-63223865D01*
X176570483Y-63268917D01*
X176572327Y-63272535D01*
X176617715Y-63361614D01*
X176738028Y-63527213D01*
X176882786Y-63671971D01*
X176997324Y-63755186D01*
X177048390Y-63792287D01*
X177164607Y-63851503D01*
X177230776Y-63885218D01*
X177230778Y-63885218D01*
X177230781Y-63885220D01*
X177335137Y-63919127D01*
X177425465Y-63948477D01*
X177526557Y-63964488D01*
X177627648Y-63980500D01*
X177627649Y-63980500D01*
X177832351Y-63980500D01*
X177832352Y-63980500D01*
X178034534Y-63948477D01*
X178229219Y-63885220D01*
X178411610Y-63792287D01*
X178511105Y-63720000D01*
X178577213Y-63671971D01*
X178577215Y-63671968D01*
X178577219Y-63671966D01*
X178721966Y-63527219D01*
X178721968Y-63527215D01*
X178721971Y-63527213D01*
X178774732Y-63454590D01*
X178842287Y-63361610D01*
X178935220Y-63179219D01*
X178998477Y-62984534D01*
X179030500Y-62782352D01*
X179030500Y-62092230D01*
X179050185Y-62025191D01*
X179066819Y-62004549D01*
X179111448Y-61959920D01*
X179253952Y-61817416D01*
X179272396Y-61789810D01*
X179326007Y-61745004D01*
X179395332Y-61736295D01*
X179458360Y-61766449D01*
X179495081Y-61825891D01*
X179499500Y-61858699D01*
X179499500Y-72085500D01*
X179479815Y-72152539D01*
X179427011Y-72198294D01*
X179375500Y-72209500D01*
X142641230Y-72209500D01*
X142574191Y-72189815D01*
X142528436Y-72137011D01*
X142518492Y-72067853D01*
X142547517Y-72004297D01*
X142553549Y-71997819D01*
X143194548Y-71356819D01*
X143255871Y-71323334D01*
X143282229Y-71320500D01*
X144670005Y-71320500D01*
X144670010Y-71320500D01*
X144772798Y-71309999D01*
X144939335Y-71254814D01*
X145088656Y-71162712D01*
X145212712Y-71038656D01*
X145304814Y-70889335D01*
X145359999Y-70722798D01*
X145370500Y-70620010D01*
X145370500Y-69594038D01*
X152329500Y-69594038D01*
X152329500Y-69845962D01*
X152346400Y-69952661D01*
X152368910Y-70094785D01*
X152446760Y-70334383D01*
X152491283Y-70421763D01*
X152550901Y-70538770D01*
X152561132Y-70558848D01*
X152709201Y-70762649D01*
X152709205Y-70762654D01*
X152887345Y-70940794D01*
X152887350Y-70940798D01*
X153041853Y-71053050D01*
X153091155Y-71088870D01*
X153183675Y-71136011D01*
X153315616Y-71203239D01*
X153315618Y-71203239D01*
X153315621Y-71203241D01*
X153555215Y-71281090D01*
X153804038Y-71320500D01*
X153804039Y-71320500D01*
X154055961Y-71320500D01*
X154055962Y-71320500D01*
X154304785Y-71281090D01*
X154544379Y-71203241D01*
X154768845Y-71088870D01*
X154972656Y-70940793D01*
X155150793Y-70762656D01*
X155298870Y-70558845D01*
X155413241Y-70334379D01*
X155491090Y-70094785D01*
X155530500Y-69845962D01*
X155530500Y-69594038D01*
X155491090Y-69345215D01*
X155413241Y-69105621D01*
X155413239Y-69105618D01*
X155413239Y-69105616D01*
X155335558Y-68953159D01*
X155314397Y-68911629D01*
X155298870Y-68881155D01*
X155279952Y-68855117D01*
X155150798Y-68677350D01*
X155150794Y-68677345D01*
X154972654Y-68499205D01*
X154972649Y-68499201D01*
X154768848Y-68351132D01*
X154768847Y-68351131D01*
X154768845Y-68351130D01*
X154698747Y-68315413D01*
X154544383Y-68236760D01*
X154304785Y-68158910D01*
X154221179Y-68145668D01*
X154055962Y-68119500D01*
X153804038Y-68119500D01*
X153737738Y-68130001D01*
X153555214Y-68158910D01*
X153315616Y-68236760D01*
X153091151Y-68351132D01*
X152887350Y-68499201D01*
X152887345Y-68499205D01*
X152709205Y-68677345D01*
X152709201Y-68677350D01*
X152561132Y-68881151D01*
X152446760Y-69105616D01*
X152368910Y-69345214D01*
X152360605Y-69397648D01*
X152329500Y-69594038D01*
X145370500Y-69594038D01*
X145370500Y-68819990D01*
X145359999Y-68717202D01*
X145304814Y-68550665D01*
X145212712Y-68401344D01*
X145088656Y-68277288D01*
X144980364Y-68210493D01*
X144939337Y-68185187D01*
X144939332Y-68185185D01*
X144937863Y-68184698D01*
X144772798Y-68130001D01*
X144772796Y-68130000D01*
X144670017Y-68119500D01*
X144670010Y-68119500D01*
X142869990Y-68119500D01*
X142869982Y-68119500D01*
X142767203Y-68130000D01*
X142767202Y-68130001D01*
X142684669Y-68157349D01*
X142600667Y-68185185D01*
X142600662Y-68185187D01*
X142451342Y-68277289D01*
X142327289Y-68401342D01*
X142235187Y-68550662D01*
X142235185Y-68550667D01*
X142212838Y-68618107D01*
X142180001Y-68717202D01*
X142180001Y-68717203D01*
X142180000Y-68717203D01*
X142169500Y-68819982D01*
X142169500Y-70207770D01*
X142149815Y-70274809D01*
X142133185Y-70295446D01*
X142044504Y-70384128D01*
X142006869Y-70421763D01*
X141945546Y-70455247D01*
X141875854Y-70450263D01*
X141819921Y-70408391D01*
X141795504Y-70342927D01*
X141801257Y-70295763D01*
X141840602Y-70174668D01*
X141880000Y-69925928D01*
X141880000Y-69674071D01*
X141840602Y-69425330D01*
X141762780Y-69185815D01*
X141648442Y-68961416D01*
X141574250Y-68859301D01*
X141574250Y-68859300D01*
X140803787Y-69629765D01*
X140792518Y-69587708D01*
X140720110Y-69462292D01*
X140617708Y-69359890D01*
X140492292Y-69287482D01*
X140450232Y-69276212D01*
X141220698Y-68505748D01*
X141118583Y-68431557D01*
X140894184Y-68317219D01*
X140654669Y-68239397D01*
X140405928Y-68200000D01*
X140154072Y-68200000D01*
X139905330Y-68239397D01*
X139665815Y-68317219D01*
X139441413Y-68431559D01*
X139339301Y-68505747D01*
X139339300Y-68505748D01*
X140109765Y-69276212D01*
X140067708Y-69287482D01*
X139942292Y-69359890D01*
X139839890Y-69462292D01*
X139767482Y-69587708D01*
X139756212Y-69629765D01*
X138985748Y-68859300D01*
X138985747Y-68859301D01*
X138911559Y-68961413D01*
X138797219Y-69185815D01*
X138719397Y-69425330D01*
X138680000Y-69674071D01*
X138680000Y-69925928D01*
X138719397Y-70174669D01*
X138797219Y-70414184D01*
X138911557Y-70638583D01*
X138985748Y-70740697D01*
X138985748Y-70740698D01*
X139756212Y-69970234D01*
X139767482Y-70012292D01*
X139839890Y-70137708D01*
X139942292Y-70240110D01*
X140067708Y-70312518D01*
X140109765Y-70323787D01*
X139332180Y-71101370D01*
X139323404Y-71143148D01*
X139274352Y-71192905D01*
X139214150Y-71208500D01*
X131729470Y-71208500D01*
X131662431Y-71188815D01*
X131616676Y-71136011D01*
X131606732Y-71066853D01*
X131623932Y-71019403D01*
X131654809Y-70969343D01*
X131654808Y-70969343D01*
X131654814Y-70969335D01*
X131709999Y-70802798D01*
X131720500Y-70700010D01*
X131720500Y-68899990D01*
X131709999Y-68797202D01*
X131654814Y-68630665D01*
X131562712Y-68481344D01*
X131438656Y-68357288D01*
X131337316Y-68294781D01*
X131289337Y-68265187D01*
X131289332Y-68265185D01*
X131287863Y-68264698D01*
X131122798Y-68210001D01*
X131122796Y-68210000D01*
X131020017Y-68199500D01*
X131020010Y-68199500D01*
X129219990Y-68199500D01*
X129219982Y-68199500D01*
X129117203Y-68210000D01*
X129117202Y-68210001D01*
X129036452Y-68236759D01*
X128950667Y-68265185D01*
X128950662Y-68265187D01*
X128801342Y-68357289D01*
X128677289Y-68481342D01*
X128585187Y-68630662D01*
X128585185Y-68630667D01*
X128569718Y-68677344D01*
X128530001Y-68797202D01*
X128530001Y-68797203D01*
X128530000Y-68797203D01*
X128519500Y-68899982D01*
X128519500Y-70538770D01*
X128499815Y-70605809D01*
X128447011Y-70651564D01*
X128377853Y-70661508D01*
X128314297Y-70632483D01*
X128307819Y-70626451D01*
X128126819Y-70445451D01*
X128093334Y-70384128D01*
X128090500Y-70357770D01*
X128090500Y-68969995D01*
X128090499Y-68969982D01*
X128088780Y-68953159D01*
X128079999Y-68867202D01*
X128024814Y-68700665D01*
X127932712Y-68551344D01*
X127808656Y-68427288D01*
X127695168Y-68357288D01*
X127659337Y-68335187D01*
X127659332Y-68335185D01*
X127635063Y-68327143D01*
X127492798Y-68280001D01*
X127492796Y-68280000D01*
X127390017Y-68269500D01*
X127390010Y-68269500D01*
X125589990Y-68269500D01*
X125589982Y-68269500D01*
X125487203Y-68280000D01*
X125487202Y-68280001D01*
X125404669Y-68307349D01*
X125320667Y-68335185D01*
X125320662Y-68335187D01*
X125171342Y-68427289D01*
X125047289Y-68551342D01*
X124955187Y-68700662D01*
X124955186Y-68700665D01*
X124900001Y-68867202D01*
X124900001Y-68867203D01*
X124900000Y-68867203D01*
X124889500Y-68969982D01*
X124889500Y-70357770D01*
X124869815Y-70424809D01*
X124853181Y-70445451D01*
X124664451Y-70634181D01*
X124603128Y-70667666D01*
X124576770Y-70670500D01*
X117920758Y-70670500D01*
X117853719Y-70650815D01*
X117807964Y-70598011D01*
X117798020Y-70528853D01*
X117810272Y-70490208D01*
X117813237Y-70484386D01*
X117813241Y-70484379D01*
X117891090Y-70244785D01*
X117930500Y-69995962D01*
X117930500Y-69744038D01*
X117891090Y-69495215D01*
X117849248Y-69366443D01*
X117847254Y-69296603D01*
X117879497Y-69240447D01*
X119243127Y-67876819D01*
X119304450Y-67843334D01*
X119330808Y-67840500D01*
X141114071Y-67840500D01*
X141198615Y-67823682D01*
X141239744Y-67815501D01*
X141358127Y-67766465D01*
X141464669Y-67695276D01*
X141555276Y-67604669D01*
X141626465Y-67498127D01*
X141641525Y-67461766D01*
X141668402Y-67421542D01*
X142163127Y-66926819D01*
X142224450Y-66893334D01*
X142250808Y-66890500D01*
X143780005Y-66890500D01*
X143780010Y-66890500D01*
X143882798Y-66879999D01*
X144049335Y-66824814D01*
X144198656Y-66732712D01*
X144322712Y-66608656D01*
X144414814Y-66459335D01*
X144469999Y-66292798D01*
X144480500Y-66190010D01*
X144480500Y-65164038D01*
X144979500Y-65164038D01*
X144979500Y-65415961D01*
X145018910Y-65664785D01*
X145096760Y-65904383D01*
X145211132Y-66128848D01*
X145359201Y-66332649D01*
X145359205Y-66332654D01*
X145537345Y-66510794D01*
X145537350Y-66510798D01*
X145685805Y-66618656D01*
X145741155Y-66658870D01*
X145884184Y-66731747D01*
X145965616Y-66773239D01*
X145965618Y-66773239D01*
X145965621Y-66773241D01*
X146205215Y-66851090D01*
X146454038Y-66890500D01*
X146454039Y-66890500D01*
X146705961Y-66890500D01*
X146705962Y-66890500D01*
X146954785Y-66851090D01*
X147194379Y-66773241D01*
X147418845Y-66658870D01*
X147622656Y-66510793D01*
X147800793Y-66332656D01*
X147948870Y-66128845D01*
X148063241Y-65904379D01*
X148141090Y-65664785D01*
X148180500Y-65415962D01*
X148180500Y-65164038D01*
X148141090Y-64915215D01*
X148063241Y-64675621D01*
X148063239Y-64675618D01*
X148063239Y-64675616D01*
X147992008Y-64535819D01*
X147948870Y-64451155D01*
X147844283Y-64307203D01*
X147800798Y-64247350D01*
X147800794Y-64247345D01*
X147622654Y-64069205D01*
X147622649Y-64069201D01*
X147418848Y-63921132D01*
X147418847Y-63921131D01*
X147418845Y-63921130D01*
X147313174Y-63867288D01*
X147194383Y-63806760D01*
X146954785Y-63728910D01*
X146832236Y-63709500D01*
X146705962Y-63689500D01*
X146454038Y-63689500D01*
X146387738Y-63700001D01*
X146205214Y-63728910D01*
X145965616Y-63806760D01*
X145741151Y-63921132D01*
X145537350Y-64069201D01*
X145537345Y-64069205D01*
X145359205Y-64247345D01*
X145359201Y-64247350D01*
X145211132Y-64451151D01*
X145096760Y-64675616D01*
X145018910Y-64915214D01*
X144979500Y-65164038D01*
X144480500Y-65164038D01*
X144480500Y-64660808D01*
X144500185Y-64593769D01*
X144516819Y-64573127D01*
X147674127Y-61415819D01*
X147735450Y-61382334D01*
X147761808Y-61379500D01*
X158574524Y-61379500D01*
X158601511Y-61387424D01*
G37*
%TD.AperFunction*%
%TA.AperFunction,Conductor*%
G36*
X170369201Y-53214047D02*
G01*
X170381746Y-53212970D01*
X170402091Y-53223705D01*
X170424159Y-53230185D01*
X170432402Y-53239699D01*
X170443541Y-53245576D01*
X170454853Y-53265608D01*
X170469914Y-53282989D01*
X170471705Y-53295449D01*
X170477898Y-53306415D01*
X170476584Y-53329381D01*
X170479858Y-53352147D01*
X170474532Y-53365268D01*
X170473909Y-53376171D01*
X170457439Y-53407383D01*
X170420498Y-53458228D01*
X170353240Y-53550800D01*
X170267454Y-53719163D01*
X170209059Y-53898881D01*
X170179500Y-54085513D01*
X170179500Y-54274486D01*
X170209059Y-54461118D01*
X170267454Y-54640836D01*
X170330829Y-54765215D01*
X170353240Y-54809199D01*
X170464310Y-54962073D01*
X170597927Y-55095690D01*
X170750801Y-55206760D01*
X170830347Y-55247290D01*
X170919163Y-55292545D01*
X170919165Y-55292545D01*
X170919168Y-55292547D01*
X171015497Y-55323846D01*
X171098881Y-55350940D01*
X171285514Y-55380500D01*
X171285519Y-55380500D01*
X171474486Y-55380500D01*
X171661118Y-55350940D01*
X171662623Y-55350451D01*
X171840832Y-55292547D01*
X172009199Y-55206760D01*
X172035182Y-55187882D01*
X175805669Y-55187882D01*
X175805670Y-55187883D01*
X175831059Y-55206329D01*
X175999362Y-55292085D01*
X176178997Y-55350451D01*
X176365553Y-55380000D01*
X176554447Y-55380000D01*
X176741002Y-55350451D01*
X176920637Y-55292085D01*
X177088937Y-55206331D01*
X177114328Y-55187883D01*
X177114328Y-55187882D01*
X176460001Y-54533554D01*
X176460000Y-54533554D01*
X175805669Y-55187882D01*
X172035182Y-55187882D01*
X172162073Y-55095690D01*
X172295690Y-54962073D01*
X172406760Y-54809199D01*
X172492547Y-54640832D01*
X172550940Y-54461118D01*
X172561427Y-54394905D01*
X172580500Y-54274486D01*
X172580500Y-54085552D01*
X175260000Y-54085552D01*
X175260000Y-54274447D01*
X175289548Y-54461002D01*
X175347914Y-54640637D01*
X175433666Y-54808933D01*
X175452116Y-54834328D01*
X176106446Y-54180000D01*
X176106446Y-54179999D01*
X176060369Y-54133922D01*
X176110000Y-54133922D01*
X176110000Y-54226078D01*
X176133852Y-54315095D01*
X176179930Y-54394905D01*
X176245095Y-54460070D01*
X176324905Y-54506148D01*
X176413922Y-54530000D01*
X176506078Y-54530000D01*
X176595095Y-54506148D01*
X176674905Y-54460070D01*
X176740070Y-54394905D01*
X176786148Y-54315095D01*
X176810000Y-54226078D01*
X176810000Y-54179999D01*
X176813554Y-54179999D01*
X176813554Y-54180000D01*
X177467882Y-54834328D01*
X177467883Y-54834328D01*
X177486331Y-54808937D01*
X177572085Y-54640637D01*
X177630451Y-54461002D01*
X177660000Y-54274447D01*
X177660000Y-54085552D01*
X177630451Y-53898997D01*
X177572085Y-53719362D01*
X177486329Y-53551059D01*
X177467883Y-53525670D01*
X177467882Y-53525669D01*
X176813554Y-54179999D01*
X176810000Y-54179999D01*
X176810000Y-54133922D01*
X176786148Y-54044905D01*
X176740070Y-53965095D01*
X176674905Y-53899930D01*
X176595095Y-53853852D01*
X176506078Y-53830000D01*
X176413922Y-53830000D01*
X176324905Y-53853852D01*
X176245095Y-53899930D01*
X176179930Y-53965095D01*
X176133852Y-54044905D01*
X176110000Y-54133922D01*
X176060369Y-54133922D01*
X175452116Y-53525669D01*
X175452116Y-53525670D01*
X175433669Y-53551060D01*
X175347914Y-53719362D01*
X175289548Y-53898997D01*
X175260000Y-54085552D01*
X172580500Y-54085552D01*
X172580500Y-54085513D01*
X172550940Y-53898881D01*
X172492545Y-53719163D01*
X172447290Y-53630347D01*
X172406760Y-53550801D01*
X172302561Y-53407384D01*
X172279082Y-53341579D01*
X172294907Y-53273526D01*
X172345013Y-53224831D01*
X172402880Y-53210500D01*
X175792692Y-53210500D01*
X175859731Y-53230185D01*
X175880373Y-53246819D01*
X176460000Y-53826446D01*
X177039627Y-53246819D01*
X177100950Y-53213334D01*
X177127308Y-53210500D01*
X179375500Y-53210500D01*
X179442539Y-53230185D01*
X179488294Y-53282989D01*
X179499500Y-53334500D01*
X179499500Y-56681408D01*
X179479815Y-56748447D01*
X179427011Y-56794202D01*
X179357853Y-56804146D01*
X179294297Y-56775121D01*
X179284108Y-56765214D01*
X179277677Y-56758201D01*
X179253951Y-56722692D01*
X179149416Y-56618157D01*
X178975509Y-56444250D01*
X178387313Y-55856052D01*
X178387312Y-55856051D01*
X178302908Y-55799655D01*
X178302907Y-55799654D01*
X178264392Y-55773919D01*
X178264380Y-55773912D01*
X178127809Y-55717343D01*
X178127799Y-55717340D01*
X177982812Y-55688500D01*
X177982810Y-55688500D01*
X161771230Y-55688500D01*
X161704191Y-55668815D01*
X161683549Y-55652181D01*
X159453549Y-53422181D01*
X159420064Y-53360858D01*
X159425048Y-53291166D01*
X159466920Y-53235233D01*
X159532384Y-53210816D01*
X159541230Y-53210500D01*
X170357120Y-53210500D01*
X170369201Y-53214047D01*
G37*
%TD.AperFunction*%
%TD*%
M02*
