%TF.GenerationSoftware,KiCad,Pcbnew,9.0.6*%
%TF.CreationDate,2026-08-01T11:23:17+05:30*%
%TF.ProjectId,L298N,4c323938-4e2e-46b6-9963-61645f706362,rev?*%
%TF.SameCoordinates,Original*%
%TF.FileFunction,Legend,Top*%
%TF.FilePolarity,Positive*%
%FSLAX46Y46*%
G04 Gerber Fmt 4.6, Leading zero omitted, Abs format (unit mm)*
G04 Created by KiCad (PCBNEW 9.0.6) date 2026-08-01 11:23:17*
%MOMM*%
%LPD*%
G01*
G04 APERTURE LIST*
%ADD10C,0.150000*%
%ADD11C,0.120000*%
%ADD12C,0.100000*%
G04 APERTURE END LIST*
D10*
X137131905Y-57254819D02*
X137131905Y-56254819D01*
X137131905Y-56254819D02*
X137370000Y-56254819D01*
X137370000Y-56254819D02*
X137512857Y-56302438D01*
X137512857Y-56302438D02*
X137608095Y-56397676D01*
X137608095Y-56397676D02*
X137655714Y-56492914D01*
X137655714Y-56492914D02*
X137703333Y-56683390D01*
X137703333Y-56683390D02*
X137703333Y-56826247D01*
X137703333Y-56826247D02*
X137655714Y-57016723D01*
X137655714Y-57016723D02*
X137608095Y-57111961D01*
X137608095Y-57111961D02*
X137512857Y-57207200D01*
X137512857Y-57207200D02*
X137370000Y-57254819D01*
X137370000Y-57254819D02*
X137131905Y-57254819D01*
X138036667Y-56254819D02*
X138655714Y-56254819D01*
X138655714Y-56254819D02*
X138322381Y-56635771D01*
X138322381Y-56635771D02*
X138465238Y-56635771D01*
X138465238Y-56635771D02*
X138560476Y-56683390D01*
X138560476Y-56683390D02*
X138608095Y-56731009D01*
X138608095Y-56731009D02*
X138655714Y-56826247D01*
X138655714Y-56826247D02*
X138655714Y-57064342D01*
X138655714Y-57064342D02*
X138608095Y-57159580D01*
X138608095Y-57159580D02*
X138560476Y-57207200D01*
X138560476Y-57207200D02*
X138465238Y-57254819D01*
X138465238Y-57254819D02*
X138179524Y-57254819D01*
X138179524Y-57254819D02*
X138084286Y-57207200D01*
X138084286Y-57207200D02*
X138036667Y-57159580D01*
X137304819Y-66271904D02*
X136304819Y-66271904D01*
X137304819Y-65700476D02*
X136733390Y-66129047D01*
X136304819Y-65700476D02*
X136876247Y-66271904D01*
X98713333Y-72039580D02*
X98665714Y-72087200D01*
X98665714Y-72087200D02*
X98522857Y-72134819D01*
X98522857Y-72134819D02*
X98427619Y-72134819D01*
X98427619Y-72134819D02*
X98284762Y-72087200D01*
X98284762Y-72087200D02*
X98189524Y-71991961D01*
X98189524Y-71991961D02*
X98141905Y-71896723D01*
X98141905Y-71896723D02*
X98094286Y-71706247D01*
X98094286Y-71706247D02*
X98094286Y-71563390D01*
X98094286Y-71563390D02*
X98141905Y-71372914D01*
X98141905Y-71372914D02*
X98189524Y-71277676D01*
X98189524Y-71277676D02*
X98284762Y-71182438D01*
X98284762Y-71182438D02*
X98427619Y-71134819D01*
X98427619Y-71134819D02*
X98522857Y-71134819D01*
X98522857Y-71134819D02*
X98665714Y-71182438D01*
X98665714Y-71182438D02*
X98713333Y-71230057D01*
X99094286Y-71230057D02*
X99141905Y-71182438D01*
X99141905Y-71182438D02*
X99237143Y-71134819D01*
X99237143Y-71134819D02*
X99475238Y-71134819D01*
X99475238Y-71134819D02*
X99570476Y-71182438D01*
X99570476Y-71182438D02*
X99618095Y-71230057D01*
X99618095Y-71230057D02*
X99665714Y-71325295D01*
X99665714Y-71325295D02*
X99665714Y-71420533D01*
X99665714Y-71420533D02*
X99618095Y-71563390D01*
X99618095Y-71563390D02*
X99046667Y-72134819D01*
X99046667Y-72134819D02*
X99665714Y-72134819D01*
X162671905Y-54454819D02*
X162671905Y-53454819D01*
X162671905Y-53454819D02*
X162910000Y-53454819D01*
X162910000Y-53454819D02*
X163052857Y-53502438D01*
X163052857Y-53502438D02*
X163148095Y-53597676D01*
X163148095Y-53597676D02*
X163195714Y-53692914D01*
X163195714Y-53692914D02*
X163243333Y-53883390D01*
X163243333Y-53883390D02*
X163243333Y-54026247D01*
X163243333Y-54026247D02*
X163195714Y-54216723D01*
X163195714Y-54216723D02*
X163148095Y-54311961D01*
X163148095Y-54311961D02*
X163052857Y-54407200D01*
X163052857Y-54407200D02*
X162910000Y-54454819D01*
X162910000Y-54454819D02*
X162671905Y-54454819D01*
X163719524Y-54454819D02*
X163910000Y-54454819D01*
X163910000Y-54454819D02*
X164005238Y-54407200D01*
X164005238Y-54407200D02*
X164052857Y-54359580D01*
X164052857Y-54359580D02*
X164148095Y-54216723D01*
X164148095Y-54216723D02*
X164195714Y-54026247D01*
X164195714Y-54026247D02*
X164195714Y-53645295D01*
X164195714Y-53645295D02*
X164148095Y-53550057D01*
X164148095Y-53550057D02*
X164100476Y-53502438D01*
X164100476Y-53502438D02*
X164005238Y-53454819D01*
X164005238Y-53454819D02*
X163814762Y-53454819D01*
X163814762Y-53454819D02*
X163719524Y-53502438D01*
X163719524Y-53502438D02*
X163671905Y-53550057D01*
X163671905Y-53550057D02*
X163624286Y-53645295D01*
X163624286Y-53645295D02*
X163624286Y-53883390D01*
X163624286Y-53883390D02*
X163671905Y-53978628D01*
X163671905Y-53978628D02*
X163719524Y-54026247D01*
X163719524Y-54026247D02*
X163814762Y-54073866D01*
X163814762Y-54073866D02*
X164005238Y-54073866D01*
X164005238Y-54073866D02*
X164100476Y-54026247D01*
X164100476Y-54026247D02*
X164148095Y-53978628D01*
X164148095Y-53978628D02*
X164195714Y-53883390D01*
X144961905Y-67934819D02*
X144961905Y-66934819D01*
X144961905Y-66934819D02*
X145200000Y-66934819D01*
X145200000Y-66934819D02*
X145342857Y-66982438D01*
X145342857Y-66982438D02*
X145438095Y-67077676D01*
X145438095Y-67077676D02*
X145485714Y-67172914D01*
X145485714Y-67172914D02*
X145533333Y-67363390D01*
X145533333Y-67363390D02*
X145533333Y-67506247D01*
X145533333Y-67506247D02*
X145485714Y-67696723D01*
X145485714Y-67696723D02*
X145438095Y-67791961D01*
X145438095Y-67791961D02*
X145342857Y-67887200D01*
X145342857Y-67887200D02*
X145200000Y-67934819D01*
X145200000Y-67934819D02*
X144961905Y-67934819D01*
X145866667Y-66934819D02*
X146533333Y-66934819D01*
X146533333Y-66934819D02*
X146104762Y-67934819D01*
X143558095Y-72184819D02*
X143558095Y-71184819D01*
X144129523Y-72184819D02*
X143700952Y-71613390D01*
X144129523Y-71184819D02*
X143558095Y-71756247D01*
X118341666Y-64539819D02*
X118341666Y-65254104D01*
X118341666Y-65254104D02*
X118294047Y-65396961D01*
X118294047Y-65396961D02*
X118198809Y-65492200D01*
X118198809Y-65492200D02*
X118055952Y-65539819D01*
X118055952Y-65539819D02*
X117960714Y-65539819D01*
X118770238Y-64635057D02*
X118817857Y-64587438D01*
X118817857Y-64587438D02*
X118913095Y-64539819D01*
X118913095Y-64539819D02*
X119151190Y-64539819D01*
X119151190Y-64539819D02*
X119246428Y-64587438D01*
X119246428Y-64587438D02*
X119294047Y-64635057D01*
X119294047Y-64635057D02*
X119341666Y-64730295D01*
X119341666Y-64730295D02*
X119341666Y-64825533D01*
X119341666Y-64825533D02*
X119294047Y-64968390D01*
X119294047Y-64968390D02*
X118722619Y-65539819D01*
X118722619Y-65539819D02*
X119341666Y-65539819D01*
X158199580Y-59806666D02*
X158247200Y-59854285D01*
X158247200Y-59854285D02*
X158294819Y-59997142D01*
X158294819Y-59997142D02*
X158294819Y-60092380D01*
X158294819Y-60092380D02*
X158247200Y-60235237D01*
X158247200Y-60235237D02*
X158151961Y-60330475D01*
X158151961Y-60330475D02*
X158056723Y-60378094D01*
X158056723Y-60378094D02*
X157866247Y-60425713D01*
X157866247Y-60425713D02*
X157723390Y-60425713D01*
X157723390Y-60425713D02*
X157532914Y-60378094D01*
X157532914Y-60378094D02*
X157437676Y-60330475D01*
X157437676Y-60330475D02*
X157342438Y-60235237D01*
X157342438Y-60235237D02*
X157294819Y-60092380D01*
X157294819Y-60092380D02*
X157294819Y-59997142D01*
X157294819Y-59997142D02*
X157342438Y-59854285D01*
X157342438Y-59854285D02*
X157390057Y-59806666D01*
X158294819Y-58854285D02*
X158294819Y-59425713D01*
X158294819Y-59139999D02*
X157294819Y-59139999D01*
X157294819Y-59139999D02*
X157437676Y-59235237D01*
X157437676Y-59235237D02*
X157532914Y-59330475D01*
X157532914Y-59330475D02*
X157580533Y-59425713D01*
X101686666Y-64744819D02*
X101686666Y-65459104D01*
X101686666Y-65459104D02*
X101639047Y-65601961D01*
X101639047Y-65601961D02*
X101543809Y-65697200D01*
X101543809Y-65697200D02*
X101400952Y-65744819D01*
X101400952Y-65744819D02*
X101305714Y-65744819D01*
X102067619Y-64744819D02*
X102686666Y-64744819D01*
X102686666Y-64744819D02*
X102353333Y-65125771D01*
X102353333Y-65125771D02*
X102496190Y-65125771D01*
X102496190Y-65125771D02*
X102591428Y-65173390D01*
X102591428Y-65173390D02*
X102639047Y-65221009D01*
X102639047Y-65221009D02*
X102686666Y-65316247D01*
X102686666Y-65316247D02*
X102686666Y-65554342D01*
X102686666Y-65554342D02*
X102639047Y-65649580D01*
X102639047Y-65649580D02*
X102591428Y-65697200D01*
X102591428Y-65697200D02*
X102496190Y-65744819D01*
X102496190Y-65744819D02*
X102210476Y-65744819D01*
X102210476Y-65744819D02*
X102115238Y-65697200D01*
X102115238Y-65697200D02*
X102067619Y-65649580D01*
X148731905Y-64134819D02*
X148731905Y-63134819D01*
X148731905Y-63134819D02*
X148970000Y-63134819D01*
X148970000Y-63134819D02*
X149112857Y-63182438D01*
X149112857Y-63182438D02*
X149208095Y-63277676D01*
X149208095Y-63277676D02*
X149255714Y-63372914D01*
X149255714Y-63372914D02*
X149303333Y-63563390D01*
X149303333Y-63563390D02*
X149303333Y-63706247D01*
X149303333Y-63706247D02*
X149255714Y-63896723D01*
X149255714Y-63896723D02*
X149208095Y-63991961D01*
X149208095Y-63991961D02*
X149112857Y-64087200D01*
X149112857Y-64087200D02*
X148970000Y-64134819D01*
X148970000Y-64134819D02*
X148731905Y-64134819D01*
X150208095Y-63134819D02*
X149731905Y-63134819D01*
X149731905Y-63134819D02*
X149684286Y-63611009D01*
X149684286Y-63611009D02*
X149731905Y-63563390D01*
X149731905Y-63563390D02*
X149827143Y-63515771D01*
X149827143Y-63515771D02*
X150065238Y-63515771D01*
X150065238Y-63515771D02*
X150160476Y-63563390D01*
X150160476Y-63563390D02*
X150208095Y-63611009D01*
X150208095Y-63611009D02*
X150255714Y-63706247D01*
X150255714Y-63706247D02*
X150255714Y-63944342D01*
X150255714Y-63944342D02*
X150208095Y-64039580D01*
X150208095Y-64039580D02*
X150160476Y-64087200D01*
X150160476Y-64087200D02*
X150065238Y-64134819D01*
X150065238Y-64134819D02*
X149827143Y-64134819D01*
X149827143Y-64134819D02*
X149731905Y-64087200D01*
X149731905Y-64087200D02*
X149684286Y-64039580D01*
X148864819Y-65571904D02*
X147864819Y-65571904D01*
X148864819Y-65000476D02*
X148293390Y-65429047D01*
X147864819Y-65000476D02*
X148436247Y-65571904D01*
X167496666Y-54674819D02*
X167496666Y-55389104D01*
X167496666Y-55389104D02*
X167449047Y-55531961D01*
X167449047Y-55531961D02*
X167353809Y-55627200D01*
X167353809Y-55627200D02*
X167210952Y-55674819D01*
X167210952Y-55674819D02*
X167115714Y-55674819D01*
X168401428Y-55008152D02*
X168401428Y-55674819D01*
X168163333Y-54627200D02*
X167925238Y-55341485D01*
X167925238Y-55341485D02*
X168544285Y-55341485D01*
X134461905Y-67784819D02*
X134461905Y-66784819D01*
X134461905Y-66784819D02*
X134700000Y-66784819D01*
X134700000Y-66784819D02*
X134842857Y-66832438D01*
X134842857Y-66832438D02*
X134938095Y-66927676D01*
X134938095Y-66927676D02*
X134985714Y-67022914D01*
X134985714Y-67022914D02*
X135033333Y-67213390D01*
X135033333Y-67213390D02*
X135033333Y-67356247D01*
X135033333Y-67356247D02*
X134985714Y-67546723D01*
X134985714Y-67546723D02*
X134938095Y-67641961D01*
X134938095Y-67641961D02*
X134842857Y-67737200D01*
X134842857Y-67737200D02*
X134700000Y-67784819D01*
X134700000Y-67784819D02*
X134461905Y-67784819D01*
X135890476Y-66784819D02*
X135700000Y-66784819D01*
X135700000Y-66784819D02*
X135604762Y-66832438D01*
X135604762Y-66832438D02*
X135557143Y-66880057D01*
X135557143Y-66880057D02*
X135461905Y-67022914D01*
X135461905Y-67022914D02*
X135414286Y-67213390D01*
X135414286Y-67213390D02*
X135414286Y-67594342D01*
X135414286Y-67594342D02*
X135461905Y-67689580D01*
X135461905Y-67689580D02*
X135509524Y-67737200D01*
X135509524Y-67737200D02*
X135604762Y-67784819D01*
X135604762Y-67784819D02*
X135795238Y-67784819D01*
X135795238Y-67784819D02*
X135890476Y-67737200D01*
X135890476Y-67737200D02*
X135938095Y-67689580D01*
X135938095Y-67689580D02*
X135985714Y-67594342D01*
X135985714Y-67594342D02*
X135985714Y-67356247D01*
X135985714Y-67356247D02*
X135938095Y-67261009D01*
X135938095Y-67261009D02*
X135890476Y-67213390D01*
X135890476Y-67213390D02*
X135795238Y-67165771D01*
X135795238Y-67165771D02*
X135604762Y-67165771D01*
X135604762Y-67165771D02*
X135509524Y-67213390D01*
X135509524Y-67213390D02*
X135461905Y-67261009D01*
X135461905Y-67261009D02*
X135414286Y-67356247D01*
X129858095Y-68154819D02*
X129858095Y-67154819D01*
X130429523Y-68154819D02*
X130000952Y-67583390D01*
X130429523Y-67154819D02*
X129858095Y-67726247D01*
X153451905Y-67884819D02*
X153451905Y-66884819D01*
X153451905Y-66884819D02*
X153690000Y-66884819D01*
X153690000Y-66884819D02*
X153832857Y-66932438D01*
X153832857Y-66932438D02*
X153928095Y-67027676D01*
X153928095Y-67027676D02*
X153975714Y-67122914D01*
X153975714Y-67122914D02*
X154023333Y-67313390D01*
X154023333Y-67313390D02*
X154023333Y-67456247D01*
X154023333Y-67456247D02*
X153975714Y-67646723D01*
X153975714Y-67646723D02*
X153928095Y-67741961D01*
X153928095Y-67741961D02*
X153832857Y-67837200D01*
X153832857Y-67837200D02*
X153690000Y-67884819D01*
X153690000Y-67884819D02*
X153451905Y-67884819D01*
X154594762Y-67313390D02*
X154499524Y-67265771D01*
X154499524Y-67265771D02*
X154451905Y-67218152D01*
X154451905Y-67218152D02*
X154404286Y-67122914D01*
X154404286Y-67122914D02*
X154404286Y-67075295D01*
X154404286Y-67075295D02*
X154451905Y-66980057D01*
X154451905Y-66980057D02*
X154499524Y-66932438D01*
X154499524Y-66932438D02*
X154594762Y-66884819D01*
X154594762Y-66884819D02*
X154785238Y-66884819D01*
X154785238Y-66884819D02*
X154880476Y-66932438D01*
X154880476Y-66932438D02*
X154928095Y-66980057D01*
X154928095Y-66980057D02*
X154975714Y-67075295D01*
X154975714Y-67075295D02*
X154975714Y-67122914D01*
X154975714Y-67122914D02*
X154928095Y-67218152D01*
X154928095Y-67218152D02*
X154880476Y-67265771D01*
X154880476Y-67265771D02*
X154785238Y-67313390D01*
X154785238Y-67313390D02*
X154594762Y-67313390D01*
X154594762Y-67313390D02*
X154499524Y-67361009D01*
X154499524Y-67361009D02*
X154451905Y-67408628D01*
X154451905Y-67408628D02*
X154404286Y-67503866D01*
X154404286Y-67503866D02*
X154404286Y-67694342D01*
X154404286Y-67694342D02*
X154451905Y-67789580D01*
X154451905Y-67789580D02*
X154499524Y-67837200D01*
X154499524Y-67837200D02*
X154594762Y-67884819D01*
X154594762Y-67884819D02*
X154785238Y-67884819D01*
X154785238Y-67884819D02*
X154880476Y-67837200D01*
X154880476Y-67837200D02*
X154928095Y-67789580D01*
X154928095Y-67789580D02*
X154975714Y-67694342D01*
X154975714Y-67694342D02*
X154975714Y-67503866D01*
X154975714Y-67503866D02*
X154928095Y-67408628D01*
X154928095Y-67408628D02*
X154880476Y-67361009D01*
X154880476Y-67361009D02*
X154785238Y-67313390D01*
X152724819Y-65561904D02*
X151724819Y-65561904D01*
X152724819Y-64990476D02*
X152153390Y-65419047D01*
X151724819Y-64990476D02*
X152296247Y-65561904D01*
X148011905Y-57074819D02*
X148011905Y-56074819D01*
X148011905Y-56074819D02*
X148250000Y-56074819D01*
X148250000Y-56074819D02*
X148392857Y-56122438D01*
X148392857Y-56122438D02*
X148488095Y-56217676D01*
X148488095Y-56217676D02*
X148535714Y-56312914D01*
X148535714Y-56312914D02*
X148583333Y-56503390D01*
X148583333Y-56503390D02*
X148583333Y-56646247D01*
X148583333Y-56646247D02*
X148535714Y-56836723D01*
X148535714Y-56836723D02*
X148488095Y-56931961D01*
X148488095Y-56931961D02*
X148392857Y-57027200D01*
X148392857Y-57027200D02*
X148250000Y-57074819D01*
X148250000Y-57074819D02*
X148011905Y-57074819D01*
X149535714Y-57074819D02*
X148964286Y-57074819D01*
X149250000Y-57074819D02*
X149250000Y-56074819D01*
X149250000Y-56074819D02*
X149154762Y-56217676D01*
X149154762Y-56217676D02*
X149059524Y-56312914D01*
X149059524Y-56312914D02*
X148964286Y-56360533D01*
X149134819Y-55391904D02*
X148134819Y-55391904D01*
X149134819Y-54820476D02*
X148563390Y-55249047D01*
X148134819Y-54820476D02*
X148706247Y-55391904D01*
X109178095Y-62514819D02*
X109178095Y-63324342D01*
X109178095Y-63324342D02*
X109225714Y-63419580D01*
X109225714Y-63419580D02*
X109273333Y-63467200D01*
X109273333Y-63467200D02*
X109368571Y-63514819D01*
X109368571Y-63514819D02*
X109559047Y-63514819D01*
X109559047Y-63514819D02*
X109654285Y-63467200D01*
X109654285Y-63467200D02*
X109701904Y-63419580D01*
X109701904Y-63419580D02*
X109749523Y-63324342D01*
X109749523Y-63324342D02*
X109749523Y-62514819D01*
X110178095Y-62610057D02*
X110225714Y-62562438D01*
X110225714Y-62562438D02*
X110320952Y-62514819D01*
X110320952Y-62514819D02*
X110559047Y-62514819D01*
X110559047Y-62514819D02*
X110654285Y-62562438D01*
X110654285Y-62562438D02*
X110701904Y-62610057D01*
X110701904Y-62610057D02*
X110749523Y-62705295D01*
X110749523Y-62705295D02*
X110749523Y-62800533D01*
X110749523Y-62800533D02*
X110701904Y-62943390D01*
X110701904Y-62943390D02*
X110130476Y-63514819D01*
X110130476Y-63514819D02*
X110749523Y-63514819D01*
X169353333Y-54794819D02*
X169020000Y-54318628D01*
X168781905Y-54794819D02*
X168781905Y-53794819D01*
X168781905Y-53794819D02*
X169162857Y-53794819D01*
X169162857Y-53794819D02*
X169258095Y-53842438D01*
X169258095Y-53842438D02*
X169305714Y-53890057D01*
X169305714Y-53890057D02*
X169353333Y-53985295D01*
X169353333Y-53985295D02*
X169353333Y-54128152D01*
X169353333Y-54128152D02*
X169305714Y-54223390D01*
X169305714Y-54223390D02*
X169258095Y-54271009D01*
X169258095Y-54271009D02*
X169162857Y-54318628D01*
X169162857Y-54318628D02*
X168781905Y-54318628D01*
X170305714Y-54794819D02*
X169734286Y-54794819D01*
X170020000Y-54794819D02*
X170020000Y-53794819D01*
X170020000Y-53794819D02*
X169924762Y-53937676D01*
X169924762Y-53937676D02*
X169829524Y-54032914D01*
X169829524Y-54032914D02*
X169734286Y-54080533D01*
X157074819Y-66851904D02*
X157884342Y-66851904D01*
X157884342Y-66851904D02*
X157979580Y-66804285D01*
X157979580Y-66804285D02*
X158027200Y-66756666D01*
X158027200Y-66756666D02*
X158074819Y-66661428D01*
X158074819Y-66661428D02*
X158074819Y-66470952D01*
X158074819Y-66470952D02*
X158027200Y-66375714D01*
X158027200Y-66375714D02*
X157979580Y-66328095D01*
X157979580Y-66328095D02*
X157884342Y-66280476D01*
X157884342Y-66280476D02*
X157074819Y-66280476D01*
X158074819Y-65280476D02*
X158074819Y-65851904D01*
X158074819Y-65566190D02*
X157074819Y-65566190D01*
X157074819Y-65566190D02*
X157217676Y-65661428D01*
X157217676Y-65661428D02*
X157312914Y-65756666D01*
X157312914Y-65756666D02*
X157360533Y-65851904D01*
X120531905Y-66424819D02*
X120531905Y-65424819D01*
X120531905Y-65424819D02*
X120770000Y-65424819D01*
X120770000Y-65424819D02*
X120912857Y-65472438D01*
X120912857Y-65472438D02*
X121008095Y-65567676D01*
X121008095Y-65567676D02*
X121055714Y-65662914D01*
X121055714Y-65662914D02*
X121103333Y-65853390D01*
X121103333Y-65853390D02*
X121103333Y-65996247D01*
X121103333Y-65996247D02*
X121055714Y-66186723D01*
X121055714Y-66186723D02*
X121008095Y-66281961D01*
X121008095Y-66281961D02*
X120912857Y-66377200D01*
X120912857Y-66377200D02*
X120770000Y-66424819D01*
X120770000Y-66424819D02*
X120531905Y-66424819D01*
X121484286Y-65520057D02*
X121531905Y-65472438D01*
X121531905Y-65472438D02*
X121627143Y-65424819D01*
X121627143Y-65424819D02*
X121865238Y-65424819D01*
X121865238Y-65424819D02*
X121960476Y-65472438D01*
X121960476Y-65472438D02*
X122008095Y-65520057D01*
X122008095Y-65520057D02*
X122055714Y-65615295D01*
X122055714Y-65615295D02*
X122055714Y-65710533D01*
X122055714Y-65710533D02*
X122008095Y-65853390D01*
X122008095Y-65853390D02*
X121436667Y-66424819D01*
X121436667Y-66424819D02*
X122055714Y-66424819D01*
X126228095Y-72424819D02*
X126228095Y-71424819D01*
X126799523Y-72424819D02*
X126370952Y-71853390D01*
X126799523Y-71424819D02*
X126228095Y-71996247D01*
X143671905Y-57124819D02*
X143671905Y-56124819D01*
X143671905Y-56124819D02*
X143910000Y-56124819D01*
X143910000Y-56124819D02*
X144052857Y-56172438D01*
X144052857Y-56172438D02*
X144148095Y-56267676D01*
X144148095Y-56267676D02*
X144195714Y-56362914D01*
X144195714Y-56362914D02*
X144243333Y-56553390D01*
X144243333Y-56553390D02*
X144243333Y-56696247D01*
X144243333Y-56696247D02*
X144195714Y-56886723D01*
X144195714Y-56886723D02*
X144148095Y-56981961D01*
X144148095Y-56981961D02*
X144052857Y-57077200D01*
X144052857Y-57077200D02*
X143910000Y-57124819D01*
X143910000Y-57124819D02*
X143671905Y-57124819D01*
X145100476Y-56458152D02*
X145100476Y-57124819D01*
X144862381Y-56077200D02*
X144624286Y-56791485D01*
X144624286Y-56791485D02*
X145243333Y-56791485D01*
X141998095Y-67934819D02*
X141998095Y-66934819D01*
X142569523Y-67934819D02*
X142140952Y-67363390D01*
X142569523Y-66934819D02*
X141998095Y-67506247D01*
X130686666Y-64539819D02*
X130686666Y-65254104D01*
X130686666Y-65254104D02*
X130639047Y-65396961D01*
X130639047Y-65396961D02*
X130543809Y-65492200D01*
X130543809Y-65492200D02*
X130400952Y-65539819D01*
X130400952Y-65539819D02*
X130305714Y-65539819D01*
X131686666Y-65539819D02*
X131115238Y-65539819D01*
X131400952Y-65539819D02*
X131400952Y-64539819D01*
X131400952Y-64539819D02*
X131305714Y-64682676D01*
X131305714Y-64682676D02*
X131210476Y-64777914D01*
X131210476Y-64777914D02*
X131115238Y-64825533D01*
D11*
%TO.C,D3*%
X137650000Y-61930000D02*
X140590000Y-61930000D01*
X137650000Y-62050000D02*
X140590000Y-62050000D01*
X137650000Y-62170000D02*
X140590000Y-62170000D01*
X139120000Y-56490000D02*
X139120000Y-57510000D01*
X139120000Y-63970000D02*
X139120000Y-62950000D01*
X137650000Y-62950000D02*
X140590000Y-62950000D01*
X140590000Y-57510000D01*
X137650000Y-57510000D01*
X137650000Y-62950000D01*
%TO.C,C2*%
X96620000Y-66220000D02*
X96620000Y-67420000D01*
X96620000Y-70740000D02*
X96620000Y-69540000D01*
X100075563Y-66220000D02*
X96620000Y-66220000D01*
X100075563Y-70740000D02*
X96620000Y-70740000D01*
X101140000Y-67284437D02*
X100075563Y-66220000D01*
X101140000Y-67284437D02*
X101140000Y-67420000D01*
X101140000Y-69675563D02*
X100075563Y-70740000D01*
X101140000Y-69675563D02*
X101140000Y-69540000D01*
X101630000Y-70290000D02*
X101630000Y-69790000D01*
X101880000Y-70040000D02*
X101380000Y-70040000D01*
D12*
%TO.C,D9*%
X164505000Y-54040000D02*
G75*
G02*
X164405000Y-54040000I-50000J0D01*
G01*
X164405000Y-54040000D02*
G75*
G02*
X164505000Y-54040000I50000J0D01*
G01*
D11*
%TO.C,D7*%
X145110000Y-69720000D02*
X146130000Y-69720000D01*
X146910000Y-68250000D02*
X146910000Y-71190000D01*
X147030000Y-68250000D02*
X147030000Y-71190000D01*
X147150000Y-68250000D02*
X147150000Y-71190000D01*
X152590000Y-69720000D02*
X151570000Y-69720000D01*
X146130000Y-68250000D02*
X151570000Y-68250000D01*
X151570000Y-71190000D01*
X146130000Y-71190000D01*
X146130000Y-68250000D01*
%TO.C,J2*%
X113475000Y-54045000D02*
X120915000Y-54045000D01*
X113475000Y-64085000D02*
X113475000Y-54045000D01*
X121515000Y-54045000D02*
X123875000Y-54045000D01*
X123875000Y-54045000D02*
X123875000Y-64085000D01*
X123875000Y-54665000D02*
X113475000Y-54665000D01*
X123875000Y-56165000D02*
X113475000Y-56165000D01*
X123875000Y-61065000D02*
X113475000Y-61065000D01*
X123875000Y-64085000D02*
X113475000Y-64085000D01*
X121215000Y-54045000D02*
X120775000Y-53435000D01*
X121655000Y-53435000D01*
X121215000Y-54045000D01*
G36*
X121215000Y-54045000D02*
G01*
X120775000Y-53435000D01*
X121655000Y-53435000D01*
X121215000Y-54045000D01*
G37*
%TO.C,C1*%
X157340000Y-55164437D02*
X157340000Y-58620000D01*
X157340000Y-58620000D02*
X158540000Y-58620000D01*
X158404437Y-54100000D02*
X157340000Y-55164437D01*
X158404437Y-54100000D02*
X158540000Y-54100000D01*
X160795563Y-54100000D02*
X160660000Y-54100000D01*
X160795563Y-54100000D02*
X161860000Y-55164437D01*
X161160000Y-53360000D02*
X161160000Y-53860000D01*
X161410000Y-53610000D02*
X160910000Y-53610000D01*
X161860000Y-55164437D02*
X161860000Y-58620000D01*
X161860000Y-58620000D02*
X160660000Y-58620000D01*
%TO.C,J3*%
X96700000Y-54010000D02*
X109220000Y-54010000D01*
X96700000Y-64050000D02*
X96700000Y-54010000D01*
X109820000Y-54010000D02*
X112180000Y-54010000D01*
X112180000Y-54010000D02*
X112180000Y-64050000D01*
X112180000Y-54630000D02*
X96700000Y-54630000D01*
X112180000Y-56130000D02*
X96700000Y-56130000D01*
X112180000Y-61030000D02*
X96700000Y-61030000D01*
X112180000Y-64050000D02*
X96700000Y-64050000D01*
X109520000Y-54010000D02*
X109080000Y-53400000D01*
X109960000Y-53400000D01*
X109520000Y-54010000D01*
G36*
X109520000Y-54010000D02*
G01*
X109080000Y-53400000D01*
X109960000Y-53400000D01*
X109520000Y-54010000D01*
G37*
%TO.C,D5*%
X149040000Y-61930000D02*
X151980000Y-61930000D01*
X149040000Y-62050000D02*
X151980000Y-62050000D01*
X149040000Y-62170000D02*
X151980000Y-62170000D01*
X150510000Y-56490000D02*
X150510000Y-57510000D01*
X150510000Y-63970000D02*
X150510000Y-62950000D01*
X149040000Y-62950000D02*
X151980000Y-62950000D01*
X151980000Y-57510000D01*
X149040000Y-57510000D01*
X149040000Y-62950000D01*
%TO.C,J4*%
X163290000Y-59120000D02*
X163290000Y-57740000D01*
X164670000Y-59120000D02*
X163290000Y-59120000D01*
X165940000Y-56360000D02*
X178750000Y-56360000D01*
X165940000Y-59120000D02*
X165940000Y-56360000D01*
X165940000Y-59120000D02*
X178750000Y-59120000D01*
X178750000Y-59120000D02*
X178750000Y-56360000D01*
%TO.C,D6*%
X131460000Y-69800000D02*
X132480000Y-69800000D01*
X133260000Y-68330000D02*
X133260000Y-71270000D01*
X133380000Y-68330000D02*
X133380000Y-71270000D01*
X133500000Y-68330000D02*
X133500000Y-71270000D01*
X138940000Y-69800000D02*
X137920000Y-69800000D01*
X132480000Y-68330000D02*
X137920000Y-68330000D01*
X137920000Y-71270000D01*
X132480000Y-71270000D01*
X132480000Y-68330000D01*
%TO.C,D8*%
X152900000Y-61920000D02*
X155840000Y-61920000D01*
X152900000Y-62040000D02*
X155840000Y-62040000D01*
X152900000Y-62160000D02*
X155840000Y-62160000D01*
X154370000Y-56480000D02*
X154370000Y-57500000D01*
X154370000Y-63960000D02*
X154370000Y-62940000D01*
X152900000Y-62940000D02*
X155840000Y-62940000D01*
X155840000Y-57500000D01*
X152900000Y-57500000D01*
X152900000Y-62940000D01*
%TO.C,D1*%
X146580000Y-56470000D02*
X146580000Y-57490000D01*
X146580000Y-63950000D02*
X146580000Y-62930000D01*
X148050000Y-58270000D02*
X145110000Y-58270000D01*
X148050000Y-58390000D02*
X145110000Y-58390000D01*
X148050000Y-58510000D02*
X145110000Y-58510000D01*
X148050000Y-57490000D02*
X145110000Y-57490000D01*
X145110000Y-62930000D01*
X148050000Y-62930000D01*
X148050000Y-57490000D01*
%TO.C,U2*%
X106085000Y-64835000D02*
X106085000Y-65105000D01*
X106085000Y-71735000D02*
X106085000Y-71465000D01*
X112505000Y-64835000D02*
X106085000Y-64835000D01*
X112505000Y-71735000D02*
X106085000Y-71735000D01*
X104355000Y-65145000D02*
X104015000Y-64675000D01*
X104695000Y-64675000D01*
X104355000Y-65145000D01*
G36*
X104355000Y-65145000D02*
G01*
X104015000Y-64675000D01*
X104695000Y-64675000D01*
X104355000Y-65145000D01*
G37*
%TO.C,R1*%
X172000000Y-53260000D02*
X175840000Y-53260000D01*
X172000000Y-55100000D02*
X175840000Y-55100000D01*
%TO.C,U1*%
X158620000Y-63840000D02*
X158620000Y-65090000D01*
X158620000Y-67090000D02*
X158620000Y-68340000D01*
X158620000Y-68340000D02*
X179060000Y-68340000D01*
X179060000Y-63840000D02*
X158620000Y-63840000D01*
X179060000Y-68340000D02*
X179060000Y-63840000D01*
X158560000Y-71340000D02*
X179120000Y-71340000D01*
X179120000Y-60840000D01*
X158560000Y-60840000D01*
X158560000Y-71340000D01*
X158620000Y-65090000D02*
G75*
G02*
X158620000Y-67090000I0J-1000000D01*
G01*
%TO.C,D2*%
X117670000Y-69870000D02*
X118690000Y-69870000D01*
X123110000Y-71340000D02*
X123110000Y-68400000D01*
X123230000Y-71340000D02*
X123230000Y-68400000D01*
X123350000Y-71340000D02*
X123350000Y-68400000D01*
X125150000Y-69870000D02*
X124130000Y-69870000D01*
X124130000Y-71340000D02*
X118690000Y-71340000D01*
X118690000Y-68400000D01*
X124130000Y-68400000D01*
X124130000Y-71340000D01*
%TO.C,D4*%
X141410000Y-61910000D02*
X144350000Y-61910000D01*
X141410000Y-62030000D02*
X144350000Y-62030000D01*
X141410000Y-62150000D02*
X144350000Y-62150000D01*
X142880000Y-56470000D02*
X142880000Y-57490000D01*
X142880000Y-63950000D02*
X142880000Y-62930000D01*
X141410000Y-62930000D02*
X144350000Y-62930000D01*
X144350000Y-57490000D01*
X141410000Y-57490000D01*
X141410000Y-62930000D01*
%TO.C,J1*%
X125820000Y-54045000D02*
X133260000Y-54045000D01*
X125820000Y-64085000D02*
X125820000Y-54045000D01*
X133860000Y-54045000D02*
X136220000Y-54045000D01*
X136220000Y-54045000D02*
X136220000Y-64085000D01*
X136220000Y-54665000D02*
X125820000Y-54665000D01*
X136220000Y-56165000D02*
X125820000Y-56165000D01*
X136220000Y-61065000D02*
X125820000Y-61065000D01*
X136220000Y-64085000D02*
X125820000Y-64085000D01*
X133560000Y-54045000D02*
X133120000Y-53435000D01*
X134000000Y-53435000D01*
X133560000Y-54045000D01*
G36*
X133560000Y-54045000D02*
G01*
X133120000Y-53435000D01*
X134000000Y-53435000D01*
X133560000Y-54045000D01*
G37*
%TD*%
M02*
