%TF.GenerationSoftware,KiCad,Pcbnew,9.0.6*%
%TF.CreationDate,2026-08-01T11:23:17+05:30*%
%TF.ProjectId,L298N,4c323938-4e2e-46b6-9963-61645f706362,rev?*%
%TF.SameCoordinates,Original*%
%TF.FileFunction,Legend,Bot*%
%TF.FilePolarity,Positive*%
%FSLAX46Y46*%
G04 Gerber Fmt 4.6, Leading zero omitted, Abs format (unit mm)*
G04 Created by KiCad (PCBNEW 9.0.6) date 2026-08-01 11:23:17*
%MOMM*%
%LPD*%
G01*
G04 APERTURE LIST*
%ADD10C,0.100000*%
G04 APERTURE END LIST*
D10*
X173063734Y-56836895D02*
X173063734Y-56036895D01*
X172682782Y-56303561D02*
X172682782Y-56836895D01*
X172682782Y-56379752D02*
X172644687Y-56341657D01*
X172644687Y-56341657D02*
X172568497Y-56303561D01*
X172568497Y-56303561D02*
X172454211Y-56303561D01*
X172454211Y-56303561D02*
X172378020Y-56341657D01*
X172378020Y-56341657D02*
X172339925Y-56417847D01*
X172339925Y-56417847D02*
X172339925Y-56836895D01*
X172035163Y-56036895D02*
X171539925Y-56036895D01*
X171539925Y-56036895D02*
X171806591Y-56341657D01*
X171806591Y-56341657D02*
X171692306Y-56341657D01*
X171692306Y-56341657D02*
X171616115Y-56379752D01*
X171616115Y-56379752D02*
X171578020Y-56417847D01*
X171578020Y-56417847D02*
X171539925Y-56494038D01*
X171539925Y-56494038D02*
X171539925Y-56684514D01*
X171539925Y-56684514D02*
X171578020Y-56760704D01*
X171578020Y-56760704D02*
X171616115Y-56798800D01*
X171616115Y-56798800D02*
X171692306Y-56836895D01*
X171692306Y-56836895D02*
X171920877Y-56836895D01*
X171920877Y-56836895D02*
X171997068Y-56798800D01*
X171997068Y-56798800D02*
X172035163Y-56760704D01*
X129496115Y-55119086D02*
X129496115Y-54119086D01*
X129496115Y-54119086D02*
X129162782Y-54833371D01*
X129162782Y-54833371D02*
X128829449Y-54119086D01*
X128829449Y-54119086D02*
X128829449Y-55119086D01*
X127829449Y-55119086D02*
X128400877Y-55119086D01*
X128115163Y-55119086D02*
X128115163Y-54119086D01*
X128115163Y-54119086D02*
X128210401Y-54261943D01*
X128210401Y-54261943D02*
X128305639Y-54357181D01*
X128305639Y-54357181D02*
X128400877Y-54404800D01*
X127400877Y-54738133D02*
X126638973Y-54738133D01*
X167873734Y-56740895D02*
X167873734Y-55940895D01*
X167492782Y-56207561D02*
X167492782Y-56740895D01*
X167492782Y-56283752D02*
X167454687Y-56245657D01*
X167454687Y-56245657D02*
X167378497Y-56207561D01*
X167378497Y-56207561D02*
X167264211Y-56207561D01*
X167264211Y-56207561D02*
X167188020Y-56245657D01*
X167188020Y-56245657D02*
X167149925Y-56321847D01*
X167149925Y-56321847D02*
X167149925Y-56740895D01*
X166349925Y-56740895D02*
X166807068Y-56740895D01*
X166578496Y-56740895D02*
X166578496Y-55940895D01*
X166578496Y-55940895D02*
X166654687Y-56055180D01*
X166654687Y-56055180D02*
X166730877Y-56131371D01*
X166730877Y-56131371D02*
X166807068Y-56169466D01*
X122116115Y-55215752D02*
X122116115Y-54215752D01*
X122116115Y-54215752D02*
X121782782Y-54930037D01*
X121782782Y-54930037D02*
X121449449Y-54215752D01*
X121449449Y-54215752D02*
X121449449Y-55215752D01*
X121020877Y-54310990D02*
X120973258Y-54263371D01*
X120973258Y-54263371D02*
X120878020Y-54215752D01*
X120878020Y-54215752D02*
X120639925Y-54215752D01*
X120639925Y-54215752D02*
X120544687Y-54263371D01*
X120544687Y-54263371D02*
X120497068Y-54310990D01*
X120497068Y-54310990D02*
X120449449Y-54406228D01*
X120449449Y-54406228D02*
X120449449Y-54501466D01*
X120449449Y-54501466D02*
X120497068Y-54644323D01*
X120497068Y-54644323D02*
X121068496Y-55215752D01*
X121068496Y-55215752D02*
X120449449Y-55215752D01*
X120020877Y-54834799D02*
X119258973Y-54834799D01*
X119639925Y-55215752D02*
X119639925Y-54453847D01*
X175603734Y-56764895D02*
X175603734Y-55964895D01*
X175222782Y-56231561D02*
X175222782Y-56764895D01*
X175222782Y-56307752D02*
X175184687Y-56269657D01*
X175184687Y-56269657D02*
X175108497Y-56231561D01*
X175108497Y-56231561D02*
X174994211Y-56231561D01*
X174994211Y-56231561D02*
X174918020Y-56269657D01*
X174918020Y-56269657D02*
X174879925Y-56345847D01*
X174879925Y-56345847D02*
X174879925Y-56764895D01*
X174156115Y-56231561D02*
X174156115Y-56764895D01*
X174346591Y-55926800D02*
X174537068Y-56498228D01*
X174537068Y-56498228D02*
X174041829Y-56498228D01*
X109749925Y-53829086D02*
X110226115Y-53829086D01*
X110226115Y-53829086D02*
X110273734Y-54305276D01*
X110273734Y-54305276D02*
X110226115Y-54257657D01*
X110226115Y-54257657D02*
X110130877Y-54210038D01*
X110130877Y-54210038D02*
X109892782Y-54210038D01*
X109892782Y-54210038D02*
X109797544Y-54257657D01*
X109797544Y-54257657D02*
X109749925Y-54305276D01*
X109749925Y-54305276D02*
X109702306Y-54400514D01*
X109702306Y-54400514D02*
X109702306Y-54638609D01*
X109702306Y-54638609D02*
X109749925Y-54733847D01*
X109749925Y-54733847D02*
X109797544Y-54781467D01*
X109797544Y-54781467D02*
X109892782Y-54829086D01*
X109892782Y-54829086D02*
X110130877Y-54829086D01*
X110130877Y-54829086D02*
X110226115Y-54781467D01*
X110226115Y-54781467D02*
X110273734Y-54733847D01*
X109416591Y-53829086D02*
X109083258Y-54829086D01*
X109083258Y-54829086D02*
X108749925Y-53829086D01*
X134406115Y-55312419D02*
X134406115Y-54312419D01*
X134406115Y-54312419D02*
X134072782Y-55026704D01*
X134072782Y-55026704D02*
X133739449Y-54312419D01*
X133739449Y-54312419D02*
X133739449Y-55312419D01*
X132739449Y-55312419D02*
X133310877Y-55312419D01*
X133025163Y-55312419D02*
X133025163Y-54312419D01*
X133025163Y-54312419D02*
X133120401Y-54455276D01*
X133120401Y-54455276D02*
X133215639Y-54550514D01*
X133215639Y-54550514D02*
X133310877Y-54598133D01*
X132310877Y-54931466D02*
X131548973Y-54931466D01*
X131929925Y-55312419D02*
X131929925Y-54550514D01*
X178253734Y-56393847D02*
X177987068Y-56393847D01*
X177872782Y-56812895D02*
X178253734Y-56812895D01*
X178253734Y-56812895D02*
X178253734Y-56012895D01*
X178253734Y-56012895D02*
X177872782Y-56012895D01*
X177529924Y-56279561D02*
X177529924Y-56812895D01*
X177529924Y-56355752D02*
X177491829Y-56317657D01*
X177491829Y-56317657D02*
X177415639Y-56279561D01*
X177415639Y-56279561D02*
X177301353Y-56279561D01*
X177301353Y-56279561D02*
X177225162Y-56317657D01*
X177225162Y-56317657D02*
X177187067Y-56393847D01*
X177187067Y-56393847D02*
X177187067Y-56812895D01*
X176539448Y-56393847D02*
X176425162Y-56431942D01*
X176425162Y-56431942D02*
X176387067Y-56470038D01*
X176387067Y-56470038D02*
X176348971Y-56546228D01*
X176348971Y-56546228D02*
X176348971Y-56660514D01*
X176348971Y-56660514D02*
X176387067Y-56736704D01*
X176387067Y-56736704D02*
X176425162Y-56774800D01*
X176425162Y-56774800D02*
X176501352Y-56812895D01*
X176501352Y-56812895D02*
X176806114Y-56812895D01*
X176806114Y-56812895D02*
X176806114Y-56012895D01*
X176806114Y-56012895D02*
X176539448Y-56012895D01*
X176539448Y-56012895D02*
X176463257Y-56050990D01*
X176463257Y-56050990D02*
X176425162Y-56089085D01*
X176425162Y-56089085D02*
X176387067Y-56165276D01*
X176387067Y-56165276D02*
X176387067Y-56241466D01*
X176387067Y-56241466D02*
X176425162Y-56317657D01*
X176425162Y-56317657D02*
X176463257Y-56355752D01*
X176463257Y-56355752D02*
X176539448Y-56393847D01*
X176539448Y-56393847D02*
X176806114Y-56393847D01*
X105411354Y-54070038D02*
X105506592Y-54022419D01*
X105506592Y-54022419D02*
X105649449Y-54022419D01*
X105649449Y-54022419D02*
X105792306Y-54070038D01*
X105792306Y-54070038D02*
X105887544Y-54165276D01*
X105887544Y-54165276D02*
X105935163Y-54260514D01*
X105935163Y-54260514D02*
X105982782Y-54450990D01*
X105982782Y-54450990D02*
X105982782Y-54593847D01*
X105982782Y-54593847D02*
X105935163Y-54784323D01*
X105935163Y-54784323D02*
X105887544Y-54879561D01*
X105887544Y-54879561D02*
X105792306Y-54974800D01*
X105792306Y-54974800D02*
X105649449Y-55022419D01*
X105649449Y-55022419D02*
X105554211Y-55022419D01*
X105554211Y-55022419D02*
X105411354Y-54974800D01*
X105411354Y-54974800D02*
X105363735Y-54927180D01*
X105363735Y-54927180D02*
X105363735Y-54593847D01*
X105363735Y-54593847D02*
X105554211Y-54593847D01*
X104935163Y-55022419D02*
X104935163Y-54022419D01*
X104935163Y-54022419D02*
X104363735Y-55022419D01*
X104363735Y-55022419D02*
X104363735Y-54022419D01*
X103887544Y-55022419D02*
X103887544Y-54022419D01*
X103887544Y-54022419D02*
X103649449Y-54022419D01*
X103649449Y-54022419D02*
X103506592Y-54070038D01*
X103506592Y-54070038D02*
X103411354Y-54165276D01*
X103411354Y-54165276D02*
X103363735Y-54260514D01*
X103363735Y-54260514D02*
X103316116Y-54450990D01*
X103316116Y-54450990D02*
X103316116Y-54593847D01*
X103316116Y-54593847D02*
X103363735Y-54784323D01*
X103363735Y-54784323D02*
X103411354Y-54879561D01*
X103411354Y-54879561D02*
X103506592Y-54974800D01*
X103506592Y-54974800D02*
X103649449Y-55022419D01*
X103649449Y-55022419D02*
X103887544Y-55022419D01*
X99882306Y-54732419D02*
X100453734Y-54732419D01*
X100168020Y-54732419D02*
X100168020Y-53732419D01*
X100168020Y-53732419D02*
X100263258Y-53875276D01*
X100263258Y-53875276D02*
X100358496Y-53970514D01*
X100358496Y-53970514D02*
X100453734Y-54018133D01*
X99501353Y-53827657D02*
X99453734Y-53780038D01*
X99453734Y-53780038D02*
X99358496Y-53732419D01*
X99358496Y-53732419D02*
X99120401Y-53732419D01*
X99120401Y-53732419D02*
X99025163Y-53780038D01*
X99025163Y-53780038D02*
X98977544Y-53827657D01*
X98977544Y-53827657D02*
X98929925Y-53922895D01*
X98929925Y-53922895D02*
X98929925Y-54018133D01*
X98929925Y-54018133D02*
X98977544Y-54160990D01*
X98977544Y-54160990D02*
X99548972Y-54732419D01*
X99548972Y-54732419D02*
X98929925Y-54732419D01*
X98644210Y-53732419D02*
X98310877Y-54732419D01*
X98310877Y-54732419D02*
X97977544Y-53732419D01*
X117326115Y-54925752D02*
X117326115Y-53925752D01*
X117326115Y-53925752D02*
X116992782Y-54640037D01*
X116992782Y-54640037D02*
X116659449Y-53925752D01*
X116659449Y-53925752D02*
X116659449Y-54925752D01*
X116230877Y-54020990D02*
X116183258Y-53973371D01*
X116183258Y-53973371D02*
X116088020Y-53925752D01*
X116088020Y-53925752D02*
X115849925Y-53925752D01*
X115849925Y-53925752D02*
X115754687Y-53973371D01*
X115754687Y-53973371D02*
X115707068Y-54020990D01*
X115707068Y-54020990D02*
X115659449Y-54116228D01*
X115659449Y-54116228D02*
X115659449Y-54211466D01*
X115659449Y-54211466D02*
X115707068Y-54354323D01*
X115707068Y-54354323D02*
X116278496Y-54925752D01*
X116278496Y-54925752D02*
X115659449Y-54925752D01*
X115230877Y-54544799D02*
X114468973Y-54544799D01*
X165383734Y-56297847D02*
X165117068Y-56297847D01*
X165002782Y-56716895D02*
X165383734Y-56716895D01*
X165383734Y-56716895D02*
X165383734Y-55916895D01*
X165383734Y-55916895D02*
X165002782Y-55916895D01*
X164659924Y-56183561D02*
X164659924Y-56716895D01*
X164659924Y-56259752D02*
X164621829Y-56221657D01*
X164621829Y-56221657D02*
X164545639Y-56183561D01*
X164545639Y-56183561D02*
X164431353Y-56183561D01*
X164431353Y-56183561D02*
X164355162Y-56221657D01*
X164355162Y-56221657D02*
X164317067Y-56297847D01*
X164317067Y-56297847D02*
X164317067Y-56716895D01*
X163974210Y-56488323D02*
X163593257Y-56488323D01*
X164050400Y-56716895D02*
X163783733Y-55916895D01*
X163783733Y-55916895D02*
X163517067Y-56716895D01*
X170463734Y-56788895D02*
X170463734Y-55988895D01*
X170082782Y-56255561D02*
X170082782Y-56788895D01*
X170082782Y-56331752D02*
X170044687Y-56293657D01*
X170044687Y-56293657D02*
X169968497Y-56255561D01*
X169968497Y-56255561D02*
X169854211Y-56255561D01*
X169854211Y-56255561D02*
X169778020Y-56293657D01*
X169778020Y-56293657D02*
X169739925Y-56369847D01*
X169739925Y-56369847D02*
X169739925Y-56788895D01*
X169397068Y-56065085D02*
X169358972Y-56026990D01*
X169358972Y-56026990D02*
X169282782Y-55988895D01*
X169282782Y-55988895D02*
X169092306Y-55988895D01*
X169092306Y-55988895D02*
X169016115Y-56026990D01*
X169016115Y-56026990D02*
X168978020Y-56065085D01*
X168978020Y-56065085D02*
X168939925Y-56141276D01*
X168939925Y-56141276D02*
X168939925Y-56217466D01*
X168939925Y-56217466D02*
X168978020Y-56331752D01*
X168978020Y-56331752D02*
X169435163Y-56788895D01*
X169435163Y-56788895D02*
X168939925Y-56788895D01*
M02*
