M48
; DRILL file {KiCad 9.0.6} date 2026-08-01T11:23:13+0530
; FORMAT={-:-/ absolute / metric / decimal}
; #@! TF.CreationDate,2026-08-01T11:23:13+05:30
; #@! TF.GenerationSoftware,Kicad,Pcbnew,9.0.6
; #@! TF.FileFunction,Plated,1,2,PTH
FMAT,2
METRIC
; #@! TA.AperFunction,Plated,PTH,ViaDrill
T1C0.300
; #@! TA.AperFunction,Plated,PTH,ComponentDrill
T2C0.700
; #@! TA.AperFunction,Plated,PTH,ComponentDrill
T3C0.800
; #@! TA.AperFunction,Plated,PTH,ComponentDrill
T4C1.000
; #@! TA.AperFunction,Plated,PTH,ComponentDrill
T5C1.100
; #@! TA.AperFunction,Plated,PTH,ComponentDrill
T6C1.300
%
G90
G05
T1
X104.355Y-68.285
X142.02Y-60.63
X150.83Y-58.69
X154.37Y-59.64
T2
X171.38Y-54.18
X176.46Y-54.18
T3
X159.95Y-62.28
X159.95Y-69.9
X162.49Y-62.28
X162.49Y-69.9
X165.03Y-62.28
X165.03Y-69.9
X167.57Y-62.28
X167.57Y-69.9
X170.11Y-62.28
X170.11Y-69.9
X172.65Y-62.28
X172.65Y-69.9
X175.19Y-62.28
X175.19Y-69.9
X177.73Y-62.28
X177.73Y-69.9
T4
X164.67Y-57.74
X167.21Y-57.74
X169.75Y-57.74
X172.29Y-57.74
X174.83Y-57.74
X177.37Y-57.74
T5
X116.33Y-69.87
X126.49Y-69.87
X130.12Y-69.8
X139.12Y-55.15
X139.12Y-65.31
X140.28Y-69.8
X142.88Y-55.13
X142.88Y-65.29
X143.77Y-69.72
X146.58Y-55.13
X146.58Y-65.29
X150.51Y-55.15
X150.51Y-65.31
X153.93Y-69.72
X154.37Y-55.14
X154.37Y-65.3
T6
X99.36Y-58.73
X104.44Y-58.73
X109.52Y-58.73
X116.135Y-58.765
X121.215Y-58.765
X128.48Y-58.765
X133.56Y-58.765
M30
