%TF.GenerationSoftware,KiCad,Pcbnew,9.0.6*%
%TF.CreationDate,2026-08-01T11:23:17+05:30*%
%TF.ProjectId,L298N,4c323938-4e2e-46b6-9963-61645f706362,rev?*%
%TF.SameCoordinates,Original*%
%TF.FileFunction,Copper,L1,Top*%
%TF.FilePolarity,Positive*%
%FSLAX46Y46*%
G04 Gerber Fmt 4.6, Leading zero omitted, Abs format (unit mm)*
G04 Created by KiCad (PCBNEW 9.0.6) date 2026-08-01 11:23:17*
%MOMM*%
%LPD*%
G01*
G04 APERTURE LIST*
G04 Aperture macros list*
%AMRoundRect*
0 Rectangle with rounded corners*
0 $1 Rounding radius*
0 $2 $3 $4 $5 $6 $7 $8 $9 X,Y pos of 4 corners*
0 Add a 4 corners polygon primitive as box body*
4,1,4,$2,$3,$4,$5,$6,$7,$8,$9,$2,$3,0*
0 Add four circle primitives for the rounded corners*
1,1,$1+$1,$2,$3*
1,1,$1+$1,$4,$5*
1,1,$1+$1,$6,$7*
1,1,$1+$1,$8,$9*
0 Add four rect primitives between the rounded corners*
20,1,$1+$1,$2,$3,$4,$5,0*
20,1,$1+$1,$4,$5,$6,$7,0*
20,1,$1+$1,$6,$7,$8,$9,0*
20,1,$1+$1,$8,$9,$2,$3,0*%
G04 Aperture macros list end*
%TA.AperFunction,ComponentPad*%
%ADD10RoundRect,0.249999X0.850001X-0.850001X0.850001X0.850001X-0.850001X0.850001X-0.850001X-0.850001X0*%
%TD*%
%TA.AperFunction,ComponentPad*%
%ADD11C,2.200000*%
%TD*%
%TA.AperFunction,SMDPad,CuDef*%
%ADD12RoundRect,0.250000X1.050000X0.550000X-1.050000X0.550000X-1.050000X-0.550000X1.050000X-0.550000X0*%
%TD*%
%TA.AperFunction,SMDPad,CuDef*%
%ADD13RoundRect,0.160000X-0.222500X-0.160000X0.222500X-0.160000X0.222500X0.160000X-0.222500X0.160000X0*%
%TD*%
%TA.AperFunction,ComponentPad*%
%ADD14RoundRect,0.249999X-0.850001X-0.850001X0.850001X-0.850001X0.850001X0.850001X-0.850001X0.850001X0*%
%TD*%
%TA.AperFunction,ComponentPad*%
%ADD15RoundRect,0.250000X1.050000X1.050000X-1.050000X1.050000X-1.050000X-1.050000X1.050000X-1.050000X0*%
%TD*%
%TA.AperFunction,ComponentPad*%
%ADD16C,2.600000*%
%TD*%
%TA.AperFunction,SMDPad,CuDef*%
%ADD17RoundRect,0.250000X-0.550000X1.050000X-0.550000X-1.050000X0.550000X-1.050000X0.550000X1.050000X0*%
%TD*%
%TA.AperFunction,ComponentPad*%
%ADD18R,1.700000X1.700000*%
%TD*%
%TA.AperFunction,ComponentPad*%
%ADD19C,1.700000*%
%TD*%
%TA.AperFunction,ComponentPad*%
%ADD20RoundRect,0.249999X-0.850001X0.850001X-0.850001X-0.850001X0.850001X-0.850001X0.850001X0.850001X0*%
%TD*%
%TA.AperFunction,SMDPad,CuDef*%
%ADD21RoundRect,0.250000X-0.850000X-0.350000X0.850000X-0.350000X0.850000X0.350000X-0.850000X0.350000X0*%
%TD*%
%TA.AperFunction,SMDPad,CuDef*%
%ADD22RoundRect,0.249997X-2.950003X-2.650003X2.950003X-2.650003X2.950003X2.650003X-2.950003X2.650003X0*%
%TD*%
%TA.AperFunction,ComponentPad*%
%ADD23C,1.400000*%
%TD*%
%TA.AperFunction,ComponentPad*%
%ADD24RoundRect,0.250000X0.550000X-0.950000X0.550000X0.950000X-0.550000X0.950000X-0.550000X-0.950000X0*%
%TD*%
%TA.AperFunction,ComponentPad*%
%ADD25O,1.600000X2.400000*%
%TD*%
%TA.AperFunction,ComponentPad*%
%ADD26RoundRect,0.249999X0.850001X0.850001X-0.850001X0.850001X-0.850001X-0.850001X0.850001X-0.850001X0*%
%TD*%
%TA.AperFunction,ViaPad*%
%ADD27C,0.600000*%
%TD*%
%TA.AperFunction,Conductor*%
%ADD28C,0.500000*%
%TD*%
%TA.AperFunction,Conductor*%
%ADD29C,0.300000*%
%TD*%
G04 APERTURE END LIST*
D10*
%TO.P,D3,1,K*%
%TO.N,m1_2*%
X139120000Y-65310000D03*
D11*
%TO.P,D3,2,A*%
%TO.N,GND*%
X139120000Y-55150000D03*
%TD*%
D12*
%TO.P,C2,1*%
%TO.N,12V input*%
X100680000Y-68480000D03*
%TO.P,C2,2*%
%TO.N,GND*%
X97080000Y-68480000D03*
%TD*%
D13*
%TO.P,D9,1,K*%
%TO.N,Net-(D9-K)*%
X165147500Y-54040000D03*
%TO.P,D9,2,A*%
%TO.N,5V Vcc*%
X166292500Y-54040000D03*
%TD*%
D14*
%TO.P,D7,1,K*%
%TO.N,12V input*%
X143770000Y-69720000D03*
D11*
%TO.P,D7,2,A*%
%TO.N,m1_1*%
X153930000Y-69720000D03*
%TD*%
D15*
%TO.P,J2,1,Pin_1*%
%TO.N,m2_1*%
X121215000Y-58765000D03*
D16*
%TO.P,J2,2,Pin_2*%
%TO.N,m2_2*%
X116135000Y-58765000D03*
%TD*%
D17*
%TO.P,C1,1*%
%TO.N,5V Vcc*%
X159600000Y-54560000D03*
%TO.P,C1,2*%
%TO.N,GND*%
X159600000Y-58160000D03*
%TD*%
D15*
%TO.P,J3,1,Pin_1*%
%TO.N,5V Vcc*%
X109520000Y-58730000D03*
D16*
%TO.P,J3,2,Pin_2*%
%TO.N,GND*%
X104440000Y-58730000D03*
%TO.P,J3,3,Pin_3*%
%TO.N,12V input*%
X99360000Y-58730000D03*
%TD*%
D10*
%TO.P,D5,1,K*%
%TO.N,m2_1*%
X150510000Y-65310000D03*
D11*
%TO.P,D5,2,A*%
%TO.N,GND*%
X150510000Y-55150000D03*
%TD*%
D18*
%TO.P,J4,1,Pin_1*%
%TO.N,en1*%
X164670000Y-57740000D03*
D19*
%TO.P,J4,2,Pin_2*%
%TO.N,in1_1*%
X167210000Y-57740000D03*
%TO.P,J4,3,Pin_3*%
%TO.N,in1_2*%
X169750000Y-57740000D03*
%TO.P,J4,4,Pin_4*%
%TO.N,in2_1*%
X172290000Y-57740000D03*
%TO.P,J4,5,Pin_5*%
%TO.N,in2_2*%
X174830000Y-57740000D03*
%TO.P,J4,6,Pin_6*%
%TO.N,en2*%
X177370000Y-57740000D03*
%TD*%
D14*
%TO.P,D6,1,K*%
%TO.N,m1_1*%
X130120000Y-69800000D03*
D11*
%TO.P,D6,2,A*%
%TO.N,GND*%
X140280000Y-69800000D03*
%TD*%
D10*
%TO.P,D8,1,K*%
%TO.N,12V input*%
X154370000Y-65300000D03*
D11*
%TO.P,D8,2,A*%
%TO.N,m1_2*%
X154370000Y-55140000D03*
%TD*%
D20*
%TO.P,D1,1,K*%
%TO.N,12V input*%
X146580000Y-55130000D03*
D11*
%TO.P,D1,2,A*%
%TO.N,m2_1*%
X146580000Y-65290000D03*
%TD*%
D21*
%TO.P,U2,1,IN*%
%TO.N,12V input*%
X104355000Y-66005000D03*
D22*
%TO.P,U2,2,GND*%
%TO.N,GND*%
X110655000Y-68285000D03*
D21*
%TO.P,U2,3,OUT*%
%TO.N,5V Vcc*%
X104355000Y-70565000D03*
%TD*%
D23*
%TO.P,R1,1*%
%TO.N,Net-(D9-K)*%
X171380000Y-54180000D03*
%TO.P,R1,2*%
%TO.N,GND*%
X176460000Y-54180000D03*
%TD*%
D24*
%TO.P,U1,1,SENSE_A*%
%TO.N,GND*%
X159950000Y-69900000D03*
D25*
%TO.P,U1,2,OUT1*%
%TO.N,m1_1*%
X162490000Y-69900000D03*
%TO.P,U1,3,OUT2*%
%TO.N,m1_2*%
X165030000Y-69900000D03*
%TO.P,U1,4,Vs*%
%TO.N,unconnected-(U1-Vs-Pad4)*%
X167570000Y-69900000D03*
%TO.P,U1,5,IN1*%
%TO.N,in1_1*%
X170110000Y-69900000D03*
%TO.P,U1,6,EnA*%
%TO.N,en1*%
X172650000Y-69900000D03*
%TO.P,U1,7,IN2*%
%TO.N,in1_2*%
X175190000Y-69900000D03*
%TO.P,U1,8,GND*%
%TO.N,GND*%
X177730000Y-69900000D03*
%TO.P,U1,9,Vss*%
%TO.N,5V Vcc*%
X177730000Y-62280000D03*
%TO.P,U1,10,IN3*%
%TO.N,in2_1*%
X175190000Y-62280000D03*
%TO.P,U1,11,EnB*%
%TO.N,en2*%
X172650000Y-62280000D03*
%TO.P,U1,12,IN4*%
%TO.N,in2_2*%
X170110000Y-62280000D03*
%TO.P,U1,13,OUT3*%
%TO.N,m2_1*%
X167570000Y-62280000D03*
%TO.P,U1,14,OUT4*%
%TO.N,m2_2*%
X165030000Y-62280000D03*
%TO.P,U1,15,SENSE_B*%
%TO.N,GND*%
X162490000Y-62280000D03*
%TO.P,U1,16*%
%TO.N,N/C*%
X159950000Y-62280000D03*
%TD*%
D26*
%TO.P,D2,1,K*%
%TO.N,12V input*%
X126490000Y-69870000D03*
D11*
%TO.P,D2,2,A*%
%TO.N,m2_2*%
X116330000Y-69870000D03*
%TD*%
D10*
%TO.P,D4,1,K*%
%TO.N,m2_2*%
X142880000Y-65290000D03*
D11*
%TO.P,D4,2,A*%
%TO.N,GND*%
X142880000Y-55130000D03*
%TD*%
D15*
%TO.P,J1,1,Pin_1*%
%TO.N,m1_1*%
X133560000Y-58765000D03*
D16*
%TO.P,J1,2,Pin_2*%
%TO.N,m1_2*%
X128480000Y-58765000D03*
%TD*%
D27*
%TO.N,12V input*%
X104355000Y-68285000D03*
%TO.N,m2_1*%
X142020000Y-60630000D03*
%TO.N,m1_2*%
X154370000Y-59640000D03*
%TO.N,m1_1*%
X150830000Y-58690000D03*
%TD*%
D28*
%TO.N,5V Vcc*%
X166292500Y-54359999D02*
X165841499Y-54811000D01*
X159851000Y-54811000D02*
X159600000Y-54560000D01*
X109520000Y-58730000D02*
X109590000Y-58730000D01*
X165841499Y-54811000D02*
X159851000Y-54811000D01*
X109720000Y-58860000D02*
X105906000Y-62674000D01*
X105906000Y-69014000D02*
X104355000Y-70565000D01*
X105906000Y-62674000D02*
X105906000Y-69014000D01*
X109590000Y-58730000D02*
X109720000Y-58860000D01*
X166292500Y-54040000D02*
X166292500Y-54359999D01*
%TO.N,GND*%
X178981000Y-56701000D02*
X176460000Y-54180000D01*
X97080000Y-58521000D02*
X97080000Y-68480000D01*
X159950000Y-69900000D02*
X161601000Y-71551000D01*
X174329000Y-56311000D02*
X161449000Y-56311000D01*
X104440000Y-58730000D02*
X102689000Y-56979000D01*
X150510000Y-55150000D02*
X148939000Y-53579000D01*
X155029000Y-53589000D02*
X152071000Y-53589000D01*
X176460000Y-54180000D02*
X174329000Y-56311000D01*
X140671000Y-69409000D02*
X140280000Y-69800000D01*
X159600000Y-58320000D02*
X162490000Y-61210000D01*
X98622000Y-56979000D02*
X97080000Y-58521000D01*
X138659000Y-71421000D02*
X113791000Y-71421000D01*
X97080000Y-68480000D02*
X100559000Y-71959000D01*
X162490000Y-61210000D02*
X162490000Y-62280000D01*
X102689000Y-56979000D02*
X98622000Y-56979000D01*
X159600000Y-58160000D02*
X155029000Y-53589000D01*
X140280000Y-69800000D02*
X138659000Y-71421000D01*
X106981000Y-71959000D02*
X110655000Y-68285000D01*
X161449000Y-56311000D02*
X159600000Y-58160000D01*
X139120000Y-55150000D02*
X140671000Y-56701000D01*
X140671000Y-56701000D02*
X140671000Y-69409000D01*
X176079000Y-71551000D02*
X177730000Y-69900000D01*
X139140000Y-55130000D02*
X139120000Y-55150000D01*
X152071000Y-53589000D02*
X150510000Y-55150000D01*
X100559000Y-71959000D02*
X106981000Y-71959000D01*
X144431000Y-53579000D02*
X142880000Y-55130000D01*
X161601000Y-71551000D02*
X176079000Y-71551000D01*
X177730000Y-69900000D02*
X178981000Y-68649000D01*
X142880000Y-55130000D02*
X139140000Y-55130000D01*
X159600000Y-58160000D02*
X159600000Y-58320000D01*
X113791000Y-71421000D02*
X110655000Y-68285000D01*
X178981000Y-68649000D02*
X178981000Y-56701000D01*
X148939000Y-53579000D02*
X144431000Y-53579000D01*
%TO.N,12V input*%
X154370000Y-65230000D02*
X146580000Y-57440000D01*
X154370000Y-65300000D02*
X154370000Y-65230000D01*
X146580000Y-57440000D02*
X146580000Y-55130000D01*
X103155000Y-66005000D02*
X100680000Y-68480000D01*
X148798292Y-69720000D02*
X153218292Y-65300000D01*
X99360000Y-58730000D02*
X104355000Y-63725000D01*
X143770000Y-69720000D02*
X148798292Y-69720000D01*
X104355000Y-66005000D02*
X103155000Y-66005000D01*
X104355000Y-63725000D02*
X104355000Y-66005000D01*
X104355000Y-66005000D02*
X104355000Y-68285000D01*
X153218292Y-65300000D02*
X154370000Y-65300000D01*
D29*
%TO.N,m2_1*%
X142020000Y-60730000D02*
X142020000Y-60630000D01*
X146580000Y-65290000D02*
X142020000Y-60730000D01*
X150510000Y-65310000D02*
X146600000Y-65310000D01*
X146600000Y-65310000D02*
X146580000Y-65290000D01*
%TO.N,m2_2*%
X116135000Y-58765000D02*
X116135000Y-69675000D01*
X116135000Y-69675000D02*
X116330000Y-69870000D01*
%TO.N,m1_2*%
X135025000Y-65310000D02*
X139120000Y-65310000D01*
X165030000Y-69900000D02*
X164630000Y-69900000D01*
X164630000Y-69900000D02*
X154370000Y-59640000D01*
X154370000Y-59640000D02*
X154370000Y-55140000D01*
X128480000Y-58765000D02*
X135025000Y-65310000D01*
D28*
%TO.N,m1_1*%
X130095000Y-55300000D02*
X133560000Y-58765000D01*
D29*
X150830000Y-58690000D02*
X155821000Y-63681000D01*
D28*
X130120000Y-69800000D02*
X125770000Y-65450000D01*
X126790000Y-55300000D02*
X130095000Y-55300000D01*
X125770000Y-65450000D02*
X125770000Y-56470000D01*
D29*
X162490000Y-69900000D02*
X160939000Y-68349000D01*
X155821000Y-67829000D02*
X155301000Y-68349000D01*
X155821000Y-63681000D02*
X155821000Y-67829000D01*
X155301000Y-68349000D02*
X153930000Y-69720000D01*
D28*
X125695000Y-56395000D02*
X126790000Y-55300000D01*
X125770000Y-56470000D02*
X125695000Y-56395000D01*
D29*
X160939000Y-68349000D02*
X155301000Y-68349000D01*
%TO.N,Net-(D9-K)*%
X171380000Y-54180000D02*
X170569000Y-53369000D01*
X165818500Y-53369000D02*
X165147500Y-54040000D01*
X170569000Y-53369000D02*
X165818500Y-53369000D01*
%TO.N,en1*%
X171099000Y-68349000D02*
X172650000Y-69900000D01*
X163879000Y-58531000D02*
X163879000Y-63156760D01*
X169071240Y-68349000D02*
X171099000Y-68349000D01*
X163879000Y-63156760D02*
X169071240Y-68349000D01*
X164670000Y-57740000D02*
X163879000Y-58531000D01*
%TO.N,in2_1*%
X175190000Y-60640000D02*
X175190000Y-62280000D01*
X172290000Y-57740000D02*
X175190000Y-60640000D01*
%TO.N,in1_2*%
X171261000Y-59251000D02*
X171261000Y-65971000D01*
X171261000Y-65971000D02*
X175190000Y-69900000D01*
X169750000Y-57740000D02*
X171261000Y-59251000D01*
%TD*%
M02*
